<svg width="278" height="354" viewBox="0 0 278 354" fill="none" xmlns="http://www.w3.org/2000/svg">
<rect width="278" height="354" rx="29" fill="#DBF6EB"/>
<path d="M233.014 95.1212C233.136 100.373 233.286 111.378 232.54 115.369C231.051 123.344 226.82 129.704 220.831 134.995C215.215 139.953 208.771 143.531 201.8 146.194C201.38 146.355 200.835 146.473 200.43 146.348C191.277 143.499 182.916 139.238 176.103 132.344C170.042 126.211 166.859 118.795 166.56 110.163C166.459 107.192 166.395 98.0767 166.303 94.9674L233.014 95.1212Z" fill="#54D19D"/>
<path d="M210.421 52.8918C211.817 52.7208 212.988 53.8833 212.998 55.2925C213.01 57.0448 212.989 58.7998 213.052 60.5526C213.08 61.3126 212.824 61.599 212.056 61.6449C206.928 61.9552 202.911 66.2159 202.779 71.5273C208.778 71.5838 214.776 71.6421 220.776 71.7068C228.296 71.787 234.324 76.5146 235.985 83.651C237.005 88.0257 236.026 92.0061 233.43 95.5726C233.198 95.89 232.541 96.0356 232.077 96.034C221.155 95.9551 210.233 95.8454 199.311 95.7413L199.311 95.7434C188.502 95.6404 177.692 95.5286 166.883 95.4508C166.007 95.4424 165.454 95.2165 164.957 94.4465C161.83 89.5891 161.315 84.546 163.867 79.4597C166.413 74.3847 170.742 71.712 176.485 71.3265C177.795 71.2381 179.121 71.3093 180.437 71.319C184.901 71.3616 189.365 71.4022 193.828 71.4433C194.033 65.3572 196.387 60.301 201.381 56.5109C204.06 54.4806 207.053 53.3046 210.421 52.8918Z" fill="#1F7F55"/>
<path d="M73.5006 140.893C93.6037 140.893 109.901 124.596 109.901 104.493C109.901 84.3901 93.6037 68.0933 73.5006 68.0933C53.3974 68.0933 37.1006 84.3901 37.1006 104.493C37.1006 124.596 53.3974 140.893 73.5006 140.893Z" fill="#54D19D"/>
<path d="M73.5 82.6608V104.501L88.06 111.781" stroke="#1F7F55" stroke-width="8.736" stroke-linecap="round" stroke-linejoin="round"/>
<path fill-rule="evenodd" clip-rule="evenodd" d="M42.0117 244H106.012V235C106.012 230.582 102.43 227 98.0117 227H50.0117C45.5934 227 42.0117 230.582 42.0117 235V244Z" fill="#54D19D"/>
<path fill-rule="evenodd" clip-rule="evenodd" d="M42.0117 249.998V290.998C42.0117 297.59 49.5378 301.353 54.8117 297.398L69.2117 286.598C72.0562 284.464 75.9673 284.464 78.8117 286.598L93.2117 297.398C98.4856 301.353 106.012 297.59 106.012 290.998V249.998H42.0117Z" fill="#2AA971"/>
<rect x="197.293" y="309" width="77.4048" height="49.6559" rx="24.828" transform="rotate(-134.541 197.293 309)" fill="#75D8AF"/>
<rect x="162.465" y="273.607" width="77.4048" height="49.6559" rx="24.828" transform="rotate(-44.5405 162.465 273.607)" fill="#75D8AF"/>
</svg>
