<svg width="278" height="354" viewBox="0 0 278 354" fill="none" xmlns="http://www.w3.org/2000/svg">
<rect width="278" height="354" rx="29" fill="#DBF6EB"/>
<path d="M89.4985 228.787H188.858C204.581 228.787 213.556 212.971 204.122 201.889C199.946 196.983 197.372 191.164 196.68 185.061L192.834 151.179C190.761 132.91 177.121 117.917 158.698 111.609V110.718C158.698 99.937 149.959 91.1976 139.178 91.1976C128.398 91.1976 119.658 99.937 119.658 110.718V111.609C101.235 117.917 87.5961 132.91 85.5226 151.179L81.6771 185.061C80.9845 191.164 78.4107 196.983 74.2344 201.889C64.8007 212.971 73.7757 228.787 89.4985 228.787Z" fill="#54D19D"/>
<path d="M139.192 263.186C150.857 263.186 160.817 256.299 164.75 246.602C164.914 246.197 164.989 245.763 164.989 245.327C164.989 243.317 163.36 241.687 161.349 241.687H117.034C115.023 241.687 113.394 243.317 113.394 245.327C113.394 245.763 113.469 246.197 113.633 246.602C117.566 256.299 127.526 263.186 139.192 263.186Z" fill="#1F7F55"/>
</svg>
