<svg width="434" height="366" viewBox="0 0 434 366" fill="none" xmlns="http://www.w3.org/2000/svg">
<path d="M93.0488 10C93.0488 4.47716 97.526 0 103.049 0H323.176C328.699 0 333.176 4.47715 333.176 10V366H93.0488V10Z" fill="#F7F7FB"/>
<rect x="100.053" y="78" width="227.12" height="44" rx="4" fill="#F1F1F5"/>
<rect x="100.053" y="138" width="227.12" height="44" rx="4" fill="#F1F1F5"/>
<rect x="100.053" y="198" width="227.12" height="44" rx="4" fill="#F1F1F5"/>
<rect x="100.053" y="258" width="227.12" height="44" rx="4" fill="#F1F1F5"/>
<rect x="100.053" y="318" width="227.12" height="44" rx="4" fill="#F1F1F5"/>
<ellipse cx="307.162" cy="39" rx="18.0095" ry="18" fill="#F1F1F5"/>
<rect x="46.0234" y="128" width="334.178" height="64" rx="5" fill="#F9FFFB"/>
<rect x="46.0234" y="128" width="334.178" height="64" rx="5" stroke="#54D19D" stroke-width="2"/>
<path d="M72.0234 170.5L72.0234 163.869" stroke="#1F7F55" stroke-width="2.48684" stroke-linecap="round"/>
<path d="M76.76 149.5H67.2863L69.1811 152.561V158.682L65.3916 162.763H78.6548L74.8653 158.682V152.561L76.76 149.5Z" fill="#54D19D" stroke="#54D19D" stroke-width="2.48684" stroke-linejoin="round"/>
<path d="M109.995 152.16V153.268C109.975 154.539 109.975 156.364 109.544 158.723L107.288 158.518C107.647 156.6 107.719 155.185 107.76 154.047H100.541V152.16H109.995ZM105.319 156.385V160.076C107.237 160.004 109.206 159.861 111 159.604L111.123 161.245C107.268 161.942 102.899 162.004 99.6387 162.024L99.4336 160.199C100.531 160.189 101.761 160.179 103.063 160.158V156.385H105.319ZM114.425 150.786V156.569H116.824V158.477H114.425V164.67H112.087V150.786H114.425ZM115.02 167.11V168.956H102.202V163.439H104.499V167.11H115.02ZM132.81 150.807V161.286H130.514V150.807H132.81ZM132.81 162.209V169.1H120.506V162.209H132.81ZM122.762 164.014V167.254H130.575V164.014H122.762ZM124.279 153.309C124.279 155.667 125.858 157.882 128.75 158.805L127.642 160.548C125.499 159.881 123.961 158.518 123.131 156.733C122.28 158.651 120.721 160.179 118.496 160.917L117.368 159.112C120.383 158.148 121.921 155.749 121.921 153.309V151.504H124.279V153.309ZM146.695 154.006C146.695 156.303 148.274 158.579 151.227 159.502L150.058 161.266C147.956 160.599 146.428 159.194 145.588 157.431C144.747 159.348 143.178 160.876 140.973 161.614L139.804 159.851C142.778 158.846 144.378 156.426 144.398 154.006V153.78H140.399V151.955H150.592V153.78H146.695V154.006ZM155.103 150.786V161.963H152.806V150.786H155.103ZM155.103 162.824V169.325H152.806V164.67H142.45V162.824H155.103ZM174.309 161.286V163.132H166.926V169.305H164.671V163.132H157.37V161.286H174.309ZM172.238 151.729V159.112H159.441V151.729H172.238ZM161.676 153.555V157.328H169.962V153.555H161.676ZM195.126 150.807V164.444H192.829V150.807H195.126ZM195.556 167.11V168.956H182.78V163.193H185.077V167.11H195.556ZM190.552 152.406V154.231H188.891V159.748C189.732 159.697 190.542 159.615 191.332 159.522L191.475 161.204C187.702 161.819 183.477 161.86 180.237 161.86L179.991 160.015L182.103 159.994V154.231H180.483V152.406H190.552ZM184.297 159.974C185.097 159.953 185.907 159.933 186.717 159.892V154.231H184.297V159.974Z" fill="#1F7F55"/>
<rect width="39.0114" height="8.00191" rx="2" transform="matrix(0.742041 -0.670355 0.670746 0.741687 387.205 142.151)" fill="#75D8AF"/>
<rect width="26.0067" height="8.00216" rx="2" transform="matrix(-0.699937 -0.714204 -0.714575 0.699559 35.5713 133.574)" fill="#75D8AF"/>
<rect width="26.0135" height="8.0001" rx="2" transform="matrix(-0.988135 0.15359 0.153749 0.98811 31.6992 169.64)" fill="#99DFC2"/>
<rect width="20.0104" height="8.00009" rx="2" transform="matrix(0.989088 -0.147327 0.14748 0.989065 394.209 153.948)" fill="#99DFC2"/>
<circle cx="28.7442" cy="151.461" r="4.00106" fill="#75D8AF"/>
<circle cx="45.8665" cy="119.629" r="3.00079" transform="rotate(7.78491 45.8665 119.629)" fill="#EDAA46"/>
<circle cx="2.2531" cy="164.714" r="2.00053" transform="rotate(7.78491 2.2531 164.714)" fill="#DF732C"/>
<circle cx="428.613" cy="165.385" r="4.00106" transform="rotate(-27.1685 428.613 165.385)" fill="#75D8AF"/>
<circle cx="413.044" cy="179.493" r="3.00079" transform="rotate(-19.3835 413.044 179.493)" fill="#EDAA46"/>
</svg>
