<svg width="576" height="201" viewBox="0 0 576 201" fill="none" xmlns="http://www.w3.org/2000/svg">
<mask id="path-1-inside-1_6467_23388" fill="white">
<path d="M331.184 11.293C331.184 5.05602 336.24 0 342.477 0H564.571C570.808 0 575.864 5.05603 575.864 11.293V54.1146H331.184V11.293Z"/>
</mask>
<path d="M331.184 11.293C331.184 5.05602 336.24 0 342.477 0H564.571C570.808 0 575.864 5.05603 575.864 11.293V54.1146H331.184V11.293Z" fill="white"/>
<path d="M329.184 11.293C329.184 3.95146 335.135 -2 342.477 -2H564.571C571.913 -2 577.864 3.95146 577.864 11.293H573.864C573.864 6.1606 569.704 2 564.571 2H342.477C337.344 2 333.184 6.1606 333.184 11.293H329.184ZM333.184 11.293M575.864 54.1146H331.184H575.864M329.184 54.1146V11.293C329.184 3.95146 335.135 -2 342.477 -2V2C337.344 2 333.184 6.1606 333.184 11.293V54.1146H329.184ZM564.571 -2C571.913 -2 577.864 3.95146 577.864 11.293V54.1146H573.864V11.293C573.864 6.1606 569.704 2 564.571 2V-2Z" fill="#54D19D" mask="url(#path-1-inside-1_6467_23388)"/>
<path d="M402.58 28.5761C402.58 33.0922 401.339 36.9631 395.83 39.7092L394.821 38.3196C397.41 37.0376 398.949 35.5488 399.817 33.7705L395.169 34.2171L394.937 32.629L400.38 32.2816C400.57 31.5869 400.686 30.8507 400.743 30.065H395.715V28.5761H402.58ZM406.517 27.1039V32.9599H408.733V34.4652H406.517V42.0251H404.681V27.1039H406.517ZM415.194 28.8243V30.28H411.356V32.8441H414.565V34.2667H411.356V37.1617C413.134 37.1451 414.358 37.0624 415.822 36.8143L415.988 38.2865C414.267 38.6174 412.845 38.6505 410.578 38.6505H409.602V28.8243H415.194ZM422.009 27.1039V42.0582H420.222V27.1039H422.009ZM418.866 27.4016V41.3303H417.146V34.1178H415.293V32.629H417.146V27.4016H418.866ZM435.616 28.4769V29.9161C435.599 31.7688 435.599 33.8532 435.02 36.9797L433.167 36.7812C433.746 33.8697 433.746 31.744 433.763 29.9492H424.83V28.4769H435.616ZM437.038 38.6174V40.1227H423.407V38.6174H428.436V33.4231H430.256V38.6174H437.038ZM450.165 27.1039V42.0748H448.345V27.1039H450.165ZM445.566 28.4107V34.0186H440.421V37.0293C442.779 37.0128 444.813 36.897 447.138 36.5L447.303 38.0053C444.756 38.452 442.522 38.5347 439.842 38.5347H438.536V32.5629H443.697V29.8995H438.519V28.4107H445.566ZM463.482 28.3445C463.482 30.2304 465.583 32.1328 468.776 32.5463L468.048 34.0351C465.509 33.6547 463.491 32.4057 462.523 30.7101C461.539 32.4057 459.529 33.6547 457.014 34.0351L456.286 32.5463C459.446 32.1328 461.547 30.2304 461.547 28.3445V27.5836H463.482V28.3445ZM469.322 35.3254V36.8473H463.383V42.0582H461.563V36.8473H455.691V35.3254H469.322ZM482.515 27.1039V35.9871H480.678V32.3313H478.131V30.8259H480.678V27.1039H482.515ZM477.453 36.3676C480.629 36.3676 482.564 37.4098 482.564 39.2129C482.564 41.016 480.629 42.0582 477.453 42.0582C474.293 42.0582 472.358 41.016 472.374 39.2129C472.358 37.4098 474.293 36.3676 477.453 36.3676ZM477.453 37.7737C475.368 37.7737 474.194 38.27 474.194 39.2129C474.194 40.1393 475.368 40.6356 477.453 40.6356C479.537 40.6356 480.728 40.1393 480.728 39.2129C480.728 38.27 479.537 37.7737 477.453 37.7737ZM475.484 29.6679C475.484 31.4876 476.692 33.3238 479.008 34.1013L478.081 35.557C476.419 34.9946 475.236 33.8532 474.591 32.4471C473.929 34.0434 472.68 35.3172 470.902 35.9541L469.942 34.4983C472.341 33.6712 473.615 31.653 473.615 29.6845V29.5687H470.505V28.0799H478.578V29.5687H475.484V29.6679ZM496.005 27.1039V33.0591H498.305V34.581H496.005V42.0582H494.186V27.1039H496.005ZM493.028 29.4033V30.8755H484.211V29.4033H487.751V27.3189H489.587V29.4033H493.028ZM488.677 31.8515C490.828 31.8515 492.432 33.3073 492.432 35.3751C492.432 37.4429 490.828 38.8821 488.677 38.8821C486.493 38.8821 484.889 37.4429 484.905 35.3751C484.889 33.3073 486.493 31.8515 488.677 31.8515ZM488.677 33.3569C487.503 33.3569 486.659 34.1509 486.659 35.3751C486.659 36.5992 487.503 37.3767 488.677 37.3602C489.818 37.3767 490.662 36.5992 490.679 35.3751C490.662 34.1509 489.818 33.3569 488.677 33.3569ZM511.084 27.1039V42.0582H509.231V27.1039H511.084ZM506.618 28.6919C506.618 33.1418 504.897 36.9301 499.653 39.4114L498.694 37.9391C502.606 36.0781 504.426 33.5471 504.748 30.1477H499.455V28.6919H506.618Z" fill="#111111"/>
<mask id="path-4-inside-2_6467_23388" fill="white">
<path d="M331.184 54.1146H575.864V137.286H331.184V54.1146Z"/>
</mask>
<path d="M331.184 54.1146H575.864V137.286H331.184V54.1146Z" fill="white"/>
<path d="M575.864 54.1146H573.864V137.286H575.864H577.864V54.1146H575.864ZM331.184 137.286H333.184V54.1146H331.184H329.184V137.286H331.184Z" fill="#54D19D" mask="url(#path-4-inside-2_6467_23388)"/>
<rect x="346.712" y="62.1139" width="213.625" height="39.6448" rx="3.29378" fill="white"/>
<rect x="346.712" y="62.1139" width="213.625" height="39.6448" rx="3.29378" stroke="#E5E5EC" stroke-width="0.94108"/>
<path d="M362.981 76.2829V86.904H362.037V76.2829H362.981ZM359.839 77.4417C359.827 80.5003 358.405 83.2003 354.845 84.9088L354.331 84.1442C357.204 82.7822 358.668 80.7452 358.883 78.2064H354.821V77.4417H359.839ZM369.915 77.609C369.903 78.9232 371.695 79.9985 373.571 80.2374L373.201 81.002C371.486 80.7332 369.885 79.885 369.306 78.6365C368.732 79.885 367.137 80.7332 365.411 81.002L365.065 80.2374C366.94 79.9985 368.696 78.9232 368.696 77.609V77.5851H365.351V76.8085H373.284V77.5851H369.915V77.609ZM373.069 85.8885V86.677H365.722V83.6543H366.665V85.8885H373.069ZM374.18 82.0176V82.7941H364.467V82.0176H368.84V80.2374H369.76V82.0176H374.18ZM383.007 77.394C382.995 80.4644 381.956 83.272 378.132 85.1478L377.607 84.4309C379.608 83.4632 380.809 82.2326 381.454 80.7989L377.81 81.1454L377.655 80.321L381.741 80.0463C381.926 79.4489 382.033 78.8217 382.075 78.1705H378.192V77.394H383.007ZM385.719 76.2829V80.6078H387.439V81.3963H385.719V86.904H384.787V76.2829H385.719ZM392.14 77.5851V78.3378H389.081V80.4405H391.65V81.1932H389.081V83.5827C390.604 83.5647 391.536 83.511 392.689 83.2959L392.773 84.0606C391.542 84.3114 390.539 84.3353 388.854 84.3473H388.185V77.5851H392.14ZM396.859 76.2829V86.904H395.951V76.2829H396.859ZM394.684 76.5457V86.3544H393.788V81.0976H392.223V80.321H393.788V76.5457H394.684ZM406.553 77.3581V78.4214C406.541 79.7237 406.541 81.1813 406.158 83.3198L405.203 83.2123C405.609 81.1813 405.609 79.6878 405.609 78.4214V78.1347H399.062V77.3581H406.553ZM407.712 84.6221V85.3987H398.034V84.6221H401.834V80.8228H402.753V84.6221H407.712ZM417.071 76.2829V86.9279H416.139V76.2829H417.071ZM413.845 77.2745V81.0498H409.879V83.5588C411.641 83.5588 413.212 83.4811 415.112 83.1765L415.207 83.965C413.248 84.2756 411.635 84.3473 409.807 84.3473H408.923V80.2852H412.902V78.0511H408.899V77.2745H413.845ZM427.375 76.2829V82.5791H426.431V80.9065H423.946V81.8145H419.071V77.0953H423.946V78.0152H426.431V76.2829H427.375ZM420.003 77.8599V81.0498H423.026V77.8599H420.003ZM423.85 82.8897C426.06 82.8897 427.41 83.6185 427.41 84.8969C427.41 86.1633 426.06 86.8801 423.85 86.8801C421.64 86.8801 420.29 86.1633 420.29 84.8969C420.29 83.6185 421.64 82.8897 423.85 82.8897ZM423.85 83.6185C422.225 83.6304 421.21 84.0964 421.222 84.8969C421.21 85.6615 422.225 86.1394 423.85 86.1394C425.475 86.1394 426.478 85.6615 426.478 84.8969C426.478 84.0964 425.475 83.6304 423.85 83.6185ZM423.946 80.1179H426.431V78.7918H423.946V80.1179Z" fill="#111111"/>
<rect x="348.172" y="112.229" width="15.0573" height="15.0573" rx="2.15104" fill="#2AA971"/>
<path d="M350.682 120.385L354.446 123.522L360.72 115.994" stroke="white" stroke-width="1.07552" stroke-linecap="round" stroke-linejoin="round"/>
<path d="M378.703 114.362V117.038H380.428V117.874H378.703V120.486H377.7V114.362H378.703ZM375.628 115.172C375.616 118.029 373.596 119.933 370.225 120.705L369.8 119.881C372.714 119.245 374.342 117.797 374.509 115.996H370.289V115.172H375.628ZM378.755 121.001V121.773H372.476V122.905H378.626V123.677H372.476V124.861H379.025V125.646H371.46V121.001H378.755ZM391.24 120.396V121.22H380.819V120.396H391.24ZM390.082 124.706V125.556H382.17V122.223H383.186V124.706H390.082ZM386.03 114.774C388.487 114.761 390.07 115.61 390.07 117.038C390.07 118.466 388.487 119.315 386.03 119.315C383.546 119.315 381.977 118.466 381.977 117.038C381.977 115.61 383.546 114.761 386.03 114.774ZM386.03 115.584C384.19 115.584 383.006 116.137 383.019 117.038C383.006 117.939 384.19 118.492 386.03 118.492C387.857 118.492 389.04 117.939 389.04 117.038C389.04 116.137 387.857 115.584 386.03 115.584ZM401.196 115.25V115.854C401.183 116.601 401.183 117.746 400.9 119.238L399.884 119.161C400.161 117.791 400.186 116.819 400.206 116.099H395.497V115.25H401.196ZM398.25 117.784V120.242C399.517 120.19 400.83 120.1 402.02 119.933L402.084 120.679C399.691 121.091 396.925 121.142 394.892 121.142L394.789 120.306C395.529 120.3 396.365 120.293 397.246 120.267V117.784H398.25ZM403.821 114.362V118.093H405.494V118.955H403.821V122.969H402.792V114.362H403.821ZM404.194 124.706V125.556H396.552V122.197H397.568V124.706H404.194ZM415.354 114.375V120.872H414.351V114.375H415.354ZM415.354 121.528V125.646H407.918V121.528H415.354ZM408.908 122.352V124.822H414.364V122.352H408.908ZM409.963 115.944C409.951 117.566 411.186 118.994 412.871 119.586L412.357 120.358C411.031 119.901 409.976 118.936 409.462 117.681C408.953 119.019 407.886 120.074 406.515 120.576L406.001 119.779C407.738 119.174 408.934 117.63 408.934 115.944V114.825H409.963V115.944ZM424.062 116.485C424.062 118.029 425.285 119.431 426.996 119.984L426.481 120.769C425.15 120.319 424.088 119.373 423.573 118.157C423.072 119.463 421.997 120.493 420.64 120.988L420.112 120.203C421.824 119.598 423.046 118.106 423.046 116.485V115.996H420.37V115.172H426.7V115.996H424.062V116.485ZM429.389 114.362V121.284H428.385V114.362H429.389ZM429.389 121.889V125.8H428.385V122.725H421.695V121.889H429.389ZM441.463 121.014V121.85H436.689V125.8H435.699V121.85H430.99V121.014H441.463ZM440.099 115.005V119.457H432.341V115.005H440.099ZM433.331 115.829V118.659H439.095V115.829H433.331ZM448.871 117.437C448.871 119.457 450.209 121.528 451.831 122.326L451.213 123.137C449.952 122.474 448.897 121.123 448.395 119.534C447.881 121.226 446.8 122.667 445.513 123.355L444.87 122.545C446.542 121.721 447.868 119.521 447.881 117.437V115.353H448.871V117.437ZM453.889 114.362V119.007H455.806V119.881H453.889V125.8H452.886V114.362H453.889ZM466.516 120.023V120.859H456.094V120.023H458.681V118.415C457.767 118.061 457.252 117.475 457.252 116.703C457.252 115.353 458.796 114.581 461.305 114.581C463.788 114.581 465.345 115.353 465.345 116.703C465.345 117.469 464.837 118.054 463.93 118.402V120.023H466.516ZM461.305 121.734C463.763 121.734 465.23 122.442 465.242 123.754C465.23 125.054 463.763 125.774 461.305 125.774C458.822 125.774 457.355 125.054 457.355 123.754C457.355 122.442 458.822 121.734 461.305 121.734ZM461.305 122.506C459.465 122.519 458.372 122.969 458.385 123.754C458.372 124.526 459.465 124.989 461.305 124.989C463.119 124.989 464.226 124.526 464.226 123.754C464.226 122.969 463.119 122.519 461.305 122.506ZM461.305 115.378C459.44 115.378 458.282 115.88 458.295 116.703C458.282 117.54 459.44 118.029 461.305 118.029C463.158 118.029 464.316 117.54 464.316 116.703C464.316 115.88 463.158 115.378 461.305 115.378ZM459.684 120.023H462.926V118.685C462.444 118.769 461.904 118.814 461.305 118.814C460.707 118.814 460.167 118.769 459.684 118.685V120.023ZM471.025 117.874C471.012 119.714 472.337 121.734 473.997 122.519L473.418 123.317C472.131 122.693 471.044 121.329 470.536 119.779C470.008 121.464 468.857 122.944 467.576 123.6L466.959 122.802C468.606 122.004 470.021 119.83 470.034 117.874V116.382H467.37V115.546H473.598V116.382H471.025V117.874ZM476.004 114.362V118.994H477.921V119.856H476.004V125.8H475V114.362H476.004ZM488.644 119.174V119.984H478.209V119.174H488.644ZM487.396 117.411V118.235H479.599V114.761H487.28V115.571H480.615V117.411H487.396ZM487.293 121.014V123.664H480.499V124.848H487.64V125.671H479.496V122.905H486.302V121.799H479.47V121.014H487.293ZM499.071 114.362V125.8H498.093V114.362H499.071ZM496.767 114.606V125.221H495.802V119.663H494.336C494.226 121.889 493.281 123.278 491.865 123.278C490.373 123.278 489.408 121.734 489.408 119.302C489.408 116.871 490.373 115.327 491.865 115.327C493.255 115.327 494.194 116.671 494.323 118.826H495.802V114.606H496.767ZM491.865 116.279C490.939 116.279 490.347 117.437 490.36 119.302C490.347 121.155 490.939 122.326 491.865 122.313C492.792 122.326 493.384 121.155 493.384 119.302C493.384 117.437 492.792 116.279 491.865 116.279ZM510.115 114.362V125.8H509.15V114.362H510.115ZM507.709 114.671V125.221H506.744V119.881H504.325C503.624 121.213 502.524 122.39 500.928 123.33L500.337 122.596C502.826 121.123 504.074 119.058 504.261 116.665H500.826V115.829H505.264C505.258 116.954 505.078 118.042 504.698 119.058H506.744V114.671H507.709ZM519.531 121.593C521.988 121.593 523.545 122.365 523.545 123.69C523.545 125.002 521.988 125.774 519.531 125.774C517.086 125.774 515.529 125.002 515.529 123.69C515.529 122.365 517.086 121.593 519.531 121.593ZM519.531 122.365C517.704 122.378 516.52 122.879 516.533 123.69C516.52 124.488 517.704 124.977 519.531 124.977C521.358 124.977 522.528 124.488 522.541 123.69C522.528 122.879 521.358 122.378 519.531 122.365ZM523.455 114.954V115.919C523.455 116.845 523.455 117.771 523.133 118.955L522.142 118.839C522.451 117.656 522.451 116.819 522.451 115.919V115.777H515.606V114.954H523.455ZM524.78 119.701V120.525H514.371V119.701H518.681V117.488H519.672V119.701H524.78ZM535.876 120.885V121.721H533.11V125.8H532.093V121.721H529.16V125.8H528.118V121.721H525.403V120.885H535.876ZM530.614 114.825C533.02 114.825 534.641 115.79 534.641 117.321C534.641 118.839 533.02 119.804 530.614 119.791C528.208 119.804 526.586 118.839 526.586 117.321C526.586 115.79 528.208 114.825 530.614 114.825ZM530.614 115.648C528.825 115.648 527.616 116.305 527.629 117.321C527.616 118.338 528.825 118.981 530.614 118.981C532.389 118.981 533.611 118.338 533.611 117.321C533.611 116.305 532.389 115.648 530.614 115.648ZM545.325 114.362V119.084H547.242V119.92H545.325V125.8H544.321V114.362H545.325ZM543.215 116.202V117.038H536.409V116.202H539.355V114.503H540.359V116.202H543.215ZM539.87 117.99C541.491 117.99 542.662 119.071 542.675 120.615C542.662 122.159 541.491 123.24 539.87 123.24C538.236 123.24 537.052 122.159 537.065 120.615C537.052 119.071 538.236 117.99 539.87 117.99ZM539.87 118.839C538.802 118.839 538.017 119.586 538.03 120.615C538.017 121.657 538.802 122.39 539.87 122.378C540.925 122.39 541.697 121.657 541.71 120.615C541.697 119.586 540.925 118.839 539.87 118.839ZM556.987 114.362V125.8H555.971V114.362H556.987ZM553.603 115.61C553.59 118.904 552.059 121.811 548.225 123.651L547.672 122.828C550.766 121.361 552.342 119.167 552.574 116.433H548.199V115.61H553.603Z" fill="#767676"/>
<mask id="path-11-inside-3_6467_23388" fill="white">
<path d="M331.184 137.286H575.864V189.165C575.864 195.402 570.808 200.458 564.571 200.458H342.477C336.24 200.458 331.184 195.402 331.184 189.165V137.286Z"/>
</mask>
<path d="M331.184 137.286H575.864V189.165C575.864 195.402 570.808 200.458 564.571 200.458H342.477C336.24 200.458 331.184 195.402 331.184 189.165V137.286Z" fill="white"/>
<path d="M331.184 137.286H575.864H331.184M577.864 189.165C577.864 196.507 571.913 202.458 564.571 202.458H342.477C335.135 202.458 329.184 196.507 329.184 189.165H333.184C333.184 194.298 337.344 198.458 342.477 198.458H564.571C569.704 198.458 573.864 194.298 573.864 189.165H577.864ZM342.477 202.458C335.135 202.458 329.184 196.507 329.184 189.165V137.286H333.184V189.165C333.184 194.298 337.344 198.458 342.477 198.458V202.458ZM577.864 137.286V189.165C577.864 196.507 571.913 202.458 564.571 202.458V198.458C569.704 198.458 573.864 194.298 573.864 189.165V137.286H577.864Z" fill="#54D19D" mask="url(#path-11-inside-3_6467_23388)"/>
<rect x="346.712" y="145.285" width="100.696" height="32.1162" rx="3.29378" fill="white"/>
<rect x="346.712" y="145.285" width="100.696" height="32.1162" rx="3.29378" stroke="#E5E5EC" stroke-width="0.94108"/>
<path d="M393.177 157.08V158.199H390.771C390.797 159.203 391.717 160.097 393.434 160.438L392.868 161.544C391.537 161.268 390.591 160.644 390.076 159.807C389.568 160.721 388.616 161.409 387.246 161.699L386.641 160.592C388.384 160.251 389.311 159.267 389.33 158.199H386.937V157.08H389.343V155.883H390.771V157.08H393.177ZM395.918 155.87V167.476H394.502V155.87H395.918ZM386.203 162.303C388.365 162.303 391.26 162.291 393.743 161.982L393.846 163.011C392.842 163.185 391.8 163.294 390.784 163.359V167.128H389.343V163.436C388.281 163.481 387.271 163.487 386.384 163.487L386.203 162.303ZM407.941 164.89V166.048H397.314V164.89H401.868V162.201H403.284V164.89H407.941ZM403.322 157.414C403.322 159.177 405.085 160.914 407.53 161.3L406.912 162.484C404.944 162.11 403.335 160.985 402.563 159.46C401.791 160.978 400.196 162.123 398.24 162.484L397.623 161.3C400.054 160.914 401.791 159.164 401.804 157.414V156.565H403.322V157.414Z" fill="#111111"/>
<rect x="459.171" y="144.815" width="101.637" height="33.0573" rx="3.76432" fill="#28282F"/>
<path d="M508.333 155.87V159.254H509.902V160.438H508.333V163.732H506.904V155.87H508.333ZM499.017 162.342C499.892 162.342 500.902 162.336 501.951 162.303V161.596C500.658 161.435 499.841 160.811 499.841 159.897C499.841 158.83 500.96 158.161 502.646 158.173C504.344 158.161 505.451 158.83 505.451 159.897C505.451 160.805 504.653 161.422 503.379 161.583V162.252C504.37 162.207 505.367 162.13 506.3 162.008L506.415 162.998C503.932 163.436 501.218 163.461 499.172 163.461L499.017 162.342ZM508.333 164.233V167.489H506.904V165.353H500.484V164.233H508.333ZM505.991 156.784V157.839H499.313V156.784H501.951V155.767H503.379V156.784H505.991ZM502.646 159.138C501.745 159.125 501.205 159.396 501.218 159.897C501.205 160.374 501.745 160.682 502.646 160.669C503.546 160.682 504.087 160.374 504.087 159.897C504.087 159.396 503.546 159.125 502.646 159.138ZM519.932 155.87V164.272H518.491V155.87H519.932ZM520.253 166.099V167.257H512.238V163.423H513.679V166.099H520.253ZM513.589 156.629C515.351 156.629 516.715 157.852 516.715 159.537C516.715 161.261 515.351 162.458 513.589 162.458C511.813 162.458 510.449 161.261 510.449 159.537C510.449 157.852 511.813 156.629 513.589 156.629ZM513.589 157.877C512.598 157.877 511.839 158.534 511.852 159.537C511.839 160.567 512.598 161.21 513.589 161.21C514.554 161.21 515.313 160.567 515.313 159.537C515.313 158.534 514.554 157.877 513.589 157.877Z" fill="white"/>
<path d="M274.006 85.44C273.486 85.44 273.065 85.8614 273.065 86.3811C273.065 86.9008 273.486 87.3222 274.006 87.3222V86.3811V85.44ZM325.679 86.3811C325.679 89.1531 327.926 91.4002 330.698 91.4002C333.47 91.4002 335.717 89.1531 335.717 86.3811C335.717 83.6091 333.47 81.362 330.698 81.362C327.926 81.362 325.679 83.6091 325.679 86.3811ZM274.951 87.3222C275.47 87.3222 275.892 86.9008 275.892 86.3811C275.892 85.8614 275.47 85.44 274.951 85.44V86.3811V87.3222ZM278.73 85.44C278.21 85.44 277.789 85.8614 277.789 86.3811C277.789 86.9008 278.21 87.3222 278.73 87.3222V86.3811V85.44ZM280.62 87.3222C281.14 87.3222 281.561 86.9008 281.561 86.3811C281.561 85.8614 281.14 85.44 280.62 85.44V86.3811V87.3222ZM284.399 85.44C283.88 85.44 283.458 85.8614 283.458 86.3811C283.458 86.9008 283.88 87.3222 284.399 87.3222V86.3811V85.44ZM286.289 87.3222C286.809 87.3222 287.23 86.9008 287.23 86.3811C287.23 85.8614 286.809 85.44 286.289 85.44V86.3811V87.3222ZM290.069 85.44C289.549 85.44 289.127 85.8614 289.127 86.3811C289.127 86.9008 289.549 87.3222 290.069 87.3222V86.3811V85.44ZM291.958 87.3222C292.478 87.3222 292.899 86.9008 292.899 86.3811C292.899 85.8614 292.478 85.44 291.958 85.44V86.3811V87.3222ZM295.738 85.44C295.218 85.44 294.797 85.8614 294.797 86.3811C294.797 86.9008 295.218 87.3222 295.738 87.3222V86.3811V85.44ZM297.628 87.3222C298.147 87.3222 298.569 86.9008 298.569 86.3811C298.569 85.8614 298.147 85.44 297.628 85.44V86.3811V87.3222ZM301.407 85.44C300.887 85.44 300.466 85.8614 300.466 86.3811C300.466 86.9008 300.887 87.3222 301.407 87.3222V86.3811V85.44ZM303.297 87.3222C303.816 87.3222 304.238 86.9008 304.238 86.3811C304.238 85.8614 303.816 85.44 303.297 85.44V86.3811V87.3222ZM307.076 85.44C306.556 85.44 306.135 85.8614 306.135 86.3811C306.135 86.9008 306.556 87.3222 307.076 87.3222V86.3811V85.44ZM308.966 87.3222C309.486 87.3222 309.907 86.9008 309.907 86.3811C309.907 85.8614 309.486 85.44 308.966 85.44V86.3811V87.3222ZM312.745 85.44C312.226 85.44 311.804 85.8614 311.804 86.3811C311.804 86.9008 312.226 87.3222 312.745 87.3222V86.3811V85.44ZM314.635 87.3222C315.155 87.3222 315.576 86.9008 315.576 86.3811C315.576 85.8614 315.155 85.44 314.635 85.44V86.3811V87.3222ZM318.415 85.44C317.895 85.44 317.473 85.8614 317.473 86.3811C317.473 86.9008 317.895 87.3222 318.415 87.3222V86.3811V85.44ZM320.304 87.3222C320.824 87.3222 321.245 86.9008 321.245 86.3811C321.245 85.8614 320.824 85.44 320.304 85.44V86.3811V87.3222ZM324.084 85.44C323.564 85.44 323.143 85.8614 323.143 86.3811C323.143 86.9008 323.564 87.3222 324.084 87.3222V86.3811V85.44ZM325.973 87.3222C326.493 87.3222 326.915 86.9008 326.915 86.3811C326.915 85.8614 326.493 85.44 325.973 85.44V86.3811V87.3222ZM329.753 85.44C329.233 85.44 328.812 85.8614 328.812 86.3811C328.812 86.9008 329.233 87.3222 329.753 87.3222V86.3811V85.44ZM274.006 86.3811V87.3222H274.951V86.3811V85.44H274.006V86.3811ZM278.73 86.3811V87.3222H280.62V86.3811V85.44H278.73V86.3811ZM284.399 86.3811V87.3222H286.289V86.3811V85.44H284.399V86.3811ZM290.069 86.3811V87.3222H291.958V86.3811V85.44H290.069V86.3811ZM295.738 86.3811V87.3222H297.628V86.3811V85.44H295.738V86.3811ZM301.407 86.3811V87.3222H303.297V86.3811V85.44H301.407V86.3811ZM307.076 86.3811V87.3222H308.966V86.3811V85.44H307.076V86.3811ZM312.745 86.3811V87.3222H314.635V86.3811V85.44H312.745V86.3811ZM318.415 86.3811V87.3222H320.304V86.3811V85.44H318.415V86.3811ZM324.084 86.3811V87.3222H325.973V86.3811V85.44H324.084V86.3811ZM329.753 86.3811V87.3222H330.698V86.3811V85.44H329.753V86.3811Z" fill="#54D19D"/>
<g opacity="0.6">
<rect width="291.198" height="57.1996" rx="5.19996" fill="white"/>
<path fill-rule="evenodd" clip-rule="evenodd" d="M14.3008 22.804H31.634V20.3665C31.634 19.1699 30.6639 18.1998 29.4673 18.1998H16.4674C15.2708 18.1998 14.3008 19.1699 14.3008 20.3665V22.804Z" fill="#BABAC7"/>
<path fill-rule="evenodd" clip-rule="evenodd" d="M14.3008 24.4281V35.5322C14.3008 37.3176 16.3391 38.3368 17.7674 37.2655L21.6674 34.3405C22.4378 33.7628 23.497 33.7628 24.2674 34.3405L28.1673 37.2655C29.5957 38.3368 31.634 37.3176 31.634 35.5322V24.4281H14.3008Z" fill="#5C5C64"/>
<path d="M62.2981 26.8174V28.4347H59.9165V36.646H57.9437V20.6145H59.9165V26.8174H62.2981ZM49.8568 22.1785V31.0474C51.9985 31.0119 54.2824 30.8253 56.6995 30.3187L56.9128 31.9894C54.2113 32.5226 51.6341 32.6826 49.2525 32.6826H47.9017V22.1785H49.8568ZM67.906 21.7342C70.4475 21.7164 72.3137 23.3338 72.3315 25.6088C72.3137 27.9015 70.4475 29.5011 67.906 29.5011C65.3822 29.5011 63.4982 27.9015 63.4982 25.6088C63.4982 23.3338 65.3822 21.7164 67.906 21.7342ZM67.906 23.4404C66.5019 23.4404 65.4532 24.2758 65.4532 25.6088C65.4532 26.9596 66.5019 27.7771 67.906 27.7771C69.3278 27.7771 70.3942 26.9596 70.3942 25.6088C70.3942 24.2758 69.3278 23.4404 67.906 23.4404ZM76.0817 20.6145V36.6993H74.1088V20.6145H76.0817ZM62.7695 31.7228C65.6665 31.7228 69.6833 31.6873 73.1491 31.1896L73.309 32.6292C69.7011 33.3224 65.8443 33.3402 63.0183 33.3402L62.7695 31.7228ZM96.6639 28.3459V29.9099H90.301V31.4562H94.8688V36.6816H92.8959V33.0558H83.6361V31.4562H88.346V29.9099H82.0187V28.3459H96.6639ZM85.8755 21.0055V22.6051H92.8071V21.0055H94.7621V27.1551H83.9204V21.0055H85.8755ZM85.8755 25.5732H92.8071V24.0803H85.8755V25.5732ZM105.56 22.1785V32.7003H97.9528V22.1785H105.56ZM99.8901 23.7248V31.1185H103.587V23.7248H99.8901ZM109.968 20.6145V26.7818H112.438V28.4525H109.968V36.6816H107.995V20.6145H109.968ZM125.777 22.1074V24.027C125.777 26.3553 125.777 28.5769 125.066 31.9716L123.094 31.7939C123.422 30.3898 123.609 29.1546 123.716 28.0082L114.242 28.5058L113.976 26.9062L123.804 26.533C123.84 25.671 123.84 24.8445 123.84 24.027V23.707H114.456V22.1074H125.777ZM127.395 33.0203V34.6376H112.749V33.0203H127.395Z" fill="#505050"/>
<path d="M276.899 24.6998L270.399 31.1997L263.899 24.6998" stroke="#5C5C64" stroke-width="1.94999" stroke-linecap="round" stroke-linejoin="round"/>
<rect y="62.3995" width="291.198" height="45.7999" rx="5.19996" fill="white"/>
<path d="M18.6028 79.9992C18.5863 84.2407 17.1504 88.1191 11.8692 90.7102L11.1431 89.72C13.9074 88.3832 15.5661 86.6833 16.4573 84.7028L11.4236 85.1814L11.2091 84.0427L16.8534 83.6631C17.1092 82.8379 17.2577 81.9714 17.3155 81.072H11.9517V79.9992H18.6028ZM22.3491 78.4644V84.4387H24.7257V85.528H22.3491V93.1362H21.0618V78.4644H22.3491ZM31.2183 80.2633V81.303H26.9933V84.2077H30.5416V85.2474H26.9933V88.5482C29.0975 88.5234 30.3848 88.4492 31.9774 88.1521L32.093 89.2083C30.3931 89.5549 29.0068 89.5879 26.6797 89.6044H25.7555V80.2633H31.2183ZM37.7373 78.4644V93.1362H36.483V78.4644H37.7373ZM34.7336 78.8275V92.3771H33.4958V85.1154H31.3338V84.0427H33.4958V78.8275H34.7336ZM51.1284 79.9497V81.4186C51.1119 83.2175 51.1119 85.2309 50.5838 88.1851L49.2635 88.0366C49.8246 85.2309 49.8246 83.168 49.8246 81.4186V81.0225H40.7806V79.9497H51.1284ZM52.7293 89.984V91.0568H39.3612V89.984H44.6094V84.7358H45.8802V89.984H52.7293ZM65.6584 78.4644V93.1693H64.3711V78.4644H65.6584ZM61.2023 79.8342V85.0494H55.7231V88.5152C58.1574 88.5152 60.3276 88.4079 62.9517 87.9871L63.0838 89.0763C60.3772 89.5054 58.1491 89.6044 55.6241 89.6044H54.4028V83.9931H59.8985V80.9069H54.3698V79.8342H61.2023ZM72.481 79.8507V91.7994H70.9792V81.4021H70.9132L68.0085 83.333V81.8312L70.9792 79.8507H72.481Z" fill="#767676"/>
<circle cx="269.508" cy="80.5089" r="1.70949" fill="#989BA2"/>
<circle cx="269.508" cy="85.709" r="1.70949" fill="#989BA2"/>
<circle cx="269.508" cy="90.909" r="1.70949" fill="#989BA2"/>
</g>
<g opacity="0.2">
<rect width="291.36" height="57.1989" rx="5.20417" fill="#505050"/>
<rect y="62.4031" width="291.36" height="46.207" rx="5.20417" fill="#505050"/>
</g>
<circle cx="268.49" cy="85.4439" r="32.036" fill="url(#paint0_radial_6467_23388)"/>
<circle opacity="0.5" cx="268.423" cy="85.3758" r="47.0132" fill="url(#paint1_radial_6467_23388)"/>
<g filter="url(#filter0_d_6467_23388)">
<rect x="246.699" y="63.8469" width="43.3137" height="43.1907" rx="21.5954" fill="white"/>
<circle cx="269.102" cy="76.6287" r="3.16255" fill="#989BA2"/>
<circle cx="269.102" cy="86.2482" r="3.16255" fill="#989BA2"/>
<circle cx="269.102" cy="95.8686" r="3.16255" fill="#989BA2"/>
</g>
<defs>
<filter id="filter0_d_6467_23388" x="233.524" y="51.6129" width="69.6637" height="69.5409" filterUnits="userSpaceOnUse" color-interpolation-filters="sRGB">
<feFlood flood-opacity="0" result="BackgroundImageFix"/>
<feColorMatrix in="SourceAlpha" type="matrix" values="0 0 0 0 0 0 0 0 0 0 0 0 0 0 0 0 0 0 127 0" result="hardAlpha"/>
<feMorphology radius="3.76432" operator="dilate" in="SourceAlpha" result="effect1_dropShadow_6467_23388"/>
<feOffset dy="0.94108"/>
<feGaussianBlur stdDeviation="4.7054"/>
<feComposite in2="hardAlpha" operator="out"/>
<feColorMatrix type="matrix" values="0 0 0 0 0.677678 0 0 0 0 1 0 0 0 0 0.866867 0 0 0 1 0"/>
<feBlend mode="normal" in2="BackgroundImageFix" result="effect1_dropShadow_6467_23388"/>
<feBlend mode="normal" in="SourceGraphic" in2="effect1_dropShadow_6467_23388" result="shape"/>
</filter>
<radialGradient id="paint0_radial_6467_23388" cx="0" cy="0" r="1" gradientUnits="userSpaceOnUse" gradientTransform="translate(268.423 85.3768) rotate(67.863) scale(39.2213)">
<stop stop-color="white"/>
<stop offset="1" stop-color="#54D19D"/>
</radialGradient>
<radialGradient id="paint1_radial_6467_23388" cx="0" cy="0" r="1" gradientUnits="userSpaceOnUse" gradientTransform="translate(268.423 85.3758) rotate(90.2156) scale(55.3144)">
<stop stop-color="white"/>
<stop offset="1" stop-color="#54D19D"/>
</radialGradient>
</defs>
</svg>
