<svg xmlns="http://www.w3.org/2000/svg" fill="none" viewBox="0 0 80 80"><path fill="#bea28a" d="M12.845 61.07c-2.457-13.517 1.024-19.969 3.073-21.505C32.43 18.06 62 33.037 64.304 37.645s.653 14.902-4.608 26.114c-4.685 9.984-11.52 11.264-14.209 11.52-10.062 1.536-30.184-.69-32.642-14.208"/><path fill="#434445" d="m14.348 42.213-2.403-1.425zm-2.125 7.92-2.79.108zm-.062 2.108-2.78-.274zm-.255 4.203-2.79.147zm1.239 6.177 2.631-.937zm.994 1.82-2.203 1.718zm1.274 1.634-2.203 1.718zm1.318 1.584 2.089-1.855zm1.363 1.534-2.089 1.855zm1.552 1.34-1.534 2.334zm.872.572 1.534-2.334zm.871.573-1.534 2.334zm1.831 1.003 1.143-2.549zm1.92.861 1.143-2.549zm1.972.735-.805 2.675zm1.011.304-.805 2.675zm1.012.304.805-2.675zm2.06.43.33-2.774zm2.096.249-.33 2.774zm2.1.116-.023-2.793zm2.106-.018-.024-2.793zm2.09-.158.397 2.765zm1.037-.149-.397-2.765zm1.038-.149.397 2.765zm2.083-.152-.009-2.794zm2.091-.007.009 2.794zm2.056-.294.773 2.685zm2.019-.582-.774-2.684zm1.933-.83 1.407 2.414zm.923-.538 1.407 2.413zm.923-.538-1.407-2.413zm1.511-1.43-2.332-1.537zm1.175-1.782 2.333 1.538zm1.173-1.759-2.317-1.561zm1.17-1.736 2.316 1.561zm.966-1.845 2.602 1.015zm.761-1.954 2.603 1.014zm.902-1.901-2.433-1.372zm1.042-1.848-2.433-1.372zm.615-1.991 2.783.245zm.189-2.136-2.783-.246zm.475-2.05-2.605-1.01zm.761-1.965 2.605 1.01zm.401-2.03 2.793.053zm.02-1.05-2.793-.053zm.02-1.048-2.792-.053zm.036-2.08 2.793.041zm.016-1.033 2.793.042zm.015-1.032-2.793-.042zm-.315-1.998 2.643-.905zm-.662-1.931-2.642.905zm-1.12-1.671-1.86 2.084zm-.79-.706 1.86-2.084zm-.79-.705 1.86-2.084zm-1.747-1.153 1.184-2.53zm-1.914-.895-1.184 2.53zm-1.9-.93 1.27-2.488zm-1.888-.965-1.27 2.488zm-1.992-.657-.46 2.755zm-1.048-.176.46-2.755zm-1.048-.175-.46 2.755zm-2.058-.502.86-2.658zm-2.02-.654-.86 2.658zm-2.067-.42-.244 2.784zm-4.226-.145-.348-2.771zm-2.107.265-.348-2.772zm-2.083.328.522 2.745zm-2.06.393-.522-2.744zm-2.035.482-.764-2.688zm-5.71 2.459-1.43-2.401zm-3.843 1.814L20.4 31.092zm-1.707 1.2-2.037-1.911zm-.726.773 2.037 1.912zm-.726.774-2.037-1.912zm-1.218 1.322-2.078-1.867zm-.985 1.097 2.079 1.866zm-.428.598-1.702 2.216zm.064.05 1.701-2.216zm.064.049-1.701 2.215zm-.982 1.814-2.403-1.424-.523.882 2.403 1.425 2.403 1.424.523-.883zm-.523.883-2.403-1.425a21 21 0 0 0-1.101 2.132l2.55 1.14 2.55 1.14q.368-.823.807-1.563zm-.954 1.847-2.55-1.14-.432.965 2.55 1.14 2.55 1.14.432-.965zm-.431.965-2.55-1.14-.432.965 2.55 1.14 2.55 1.14.432-.965zm-.432.965-2.55-1.14a7.26 7.26 0 0 0-.632 3.273l2.792-.109 2.791-.109c-.01-.278.037-.525.15-.775zm-.39 2.024-2.792.109.042 1.06 2.791-.11 2.791-.109-.04-1.059zm.041 1.06-2.791.108.041 1.06 2.791-.11 2.792-.108-.042-1.06zm.041 1.058-2.79.11q.033.867-.052 1.725l2.78.274 2.78.274q.123-1.242.074-2.491zm-.062 2.109-2.78-.274-.103 1.05 2.78.273 2.78.274.103-1.05zm-.103 1.05-2.78-.275-.104 1.05 2.78.274 2.78.274.104-1.05zm-.104 1.049-2.78-.274q-.123 1.26-.057 2.525l2.79-.147 2.79-.146q-.046-.846.038-1.684zm-.048 2.104-2.79.147.056 1.055 2.79-.147 2.79-.146-.056-1.055zm.056 1.055-2.79.147.056 1.055 2.79-.146 2.789-.147-.055-1.055zm.055 1.056-2.79.146q.079 1.465.571 2.85l2.632-.937 2.632-.937a4.5 4.5 0 0 1-.255-1.269zm.413 2.059-2.632.936.357 1.004 2.632-.937 2.632-.937-.357-1.003zm.357 1.003-2.632.937.358 1.004 2.632-.937 2.631-.937-.357-1.004zm.357 1.004-2.631.937c.335.942.81 1.814 1.423 2.601l2.203-1.718 2.203-1.717a3.7 3.7 0 0 1-.566-1.04zm.995 1.82-2.203 1.718.637.817 2.203-1.718 2.203-1.717-.637-.817zm.637.817-2.203 1.718.637.817 2.203-1.718 2.203-1.717-.637-.817zm.637.817-2.203 1.718q.692.886 1.433 1.722l2.088-1.856 2.089-1.855a29 29 0 0 1-1.204-1.446zm1.318 1.584-2.088 1.856.681.766 2.088-1.855 2.089-1.855-.681-.767zm.681.767-2.088 1.855.681.767 2.089-1.855 2.088-1.855-.681-.767zm.682.767-2.089 1.855q.932 1.047 2.107 1.819l1.534-2.335 1.535-2.334a5 5 0 0 1-.999-.86zm1.552 1.34-1.534 2.334.871.573 1.535-2.335 1.534-2.334-.871-.573zm.872.572-1.535 2.335.872.572 1.534-2.334 1.535-2.334-.872-.573zm.871.573-1.534 2.334q1.06.698 2.223 1.218l1.142-2.549 1.143-2.549q-.757-.34-1.44-.788zm1.831 1.003-1.142 2.55.96.43 1.142-2.55 1.143-2.548-.96-.43zm.96.43-1.142 2.55.96.43 1.142-2.549 1.143-2.549-.96-.43zm.96.431-1.143 2.55q1.125.503 2.31.86l.805-2.675.805-2.675a13.5 13.5 0 0 1-1.634-.609zm1.972.735-.805 2.675 1.012.304.804-2.675.805-2.675-1.012-.304zm1.011.304-.805 2.675 1.012.304.805-2.675.805-2.675-1.012-.304zm1.012.304-.805 2.675q1.245.375 2.534.528l.33-2.773.33-2.774a9.3 9.3 0 0 1-1.584-.33zm2.06.43-.33 2.773 1.048.125.33-2.774.33-2.774-1.048-.124zm1.048.124-.33 2.774 1.048.125.33-2.774.33-2.774-1.048-.125zm1.048.125-.33 2.774q1.224.145 2.454.135l-.023-2.793-.024-2.793a14 14 0 0 1-1.747-.097zm2.1.116.024 2.793 1.053-.008-.024-2.794-.023-2.793-1.053.009zm1.053-.009.024 2.793 1.052-.008-.023-2.794-.024-2.793-1.052.009zm1.053-.009.023 2.794a18 18 0 0 0 2.464-.187l-.397-2.765-.398-2.765a13 13 0 0 1-1.716.13zm2.09-.158.397 2.765 1.038-.149-.398-2.765-.397-2.765-1.038.15zm1.037-.149.398 2.765 1.037-.149-.397-2.765-.398-2.765-1.037.149zm1.038-.149.397 2.765a12 12 0 0 1 1.695-.124l-.01-2.793-.008-2.794q-1.24.005-2.472.18zm2.083-.152.009 2.793 1.045-.003-.008-2.793-.009-2.794-1.046.003zm1.046-.004.008 2.794 1.046-.003-.009-2.794-.008-2.793-1.046.003zm1.045-.003.009 2.794c.957-.003 1.9-.138 2.82-.403l-.773-2.685-.774-2.684a4.7 4.7 0 0 1-1.29.185zm2.056-.294.773 2.685 1.01-.291-.774-2.685-.773-2.684-1.01.29zm1.01-.29.773 2.684 1.01-.291-.774-2.685-.774-2.684-1.01.291zm1.009-.292.773 2.685a11.3 11.3 0 0 0 2.567-1.101l-1.407-2.413-1.408-2.413q-.629.367-1.299.558zm1.933-.83 1.407 2.414.923-.538-1.407-2.414-1.407-2.413-.924.539zm.923-.538 1.407 2.413.924-.538-1.407-2.413-1.408-2.413-.923.538zm.923-.538 1.408 2.413a7.3 7.3 0 0 0 2.436-2.305L55.2 70.835l-2.332-1.537a1.7 1.7 0 0 1-.586.554zm1.511-1.43 2.333 1.538.587-.891-2.332-1.538-2.332-1.537-.588.89zm.588-.89 2.332 1.537.587-.891-2.332-1.538-2.332-1.537-.587.89zm.587-.892 2.333 1.538q.58-.88 1.156-1.736l-2.316-1.56-2.317-1.562q-.593.88-1.188 1.783zm1.173-1.759 2.316 1.561.585-.868-2.316-1.56-2.317-1.562-.585.868zm.585-.868 2.316 1.561.585-.868-2.316-1.56-2.317-1.562-.585.868zm.585-.868 2.316 1.561q.76-1.126 1.252-2.391l-2.602-1.015-2.603-1.014q-.269.688-.68 1.298zm.966-1.845 2.602 1.015.381-.978-2.602-1.014-2.603-1.014-.381.977zm.38-.977 2.603 1.014.381-.977-2.603-1.014-2.602-1.015-.381.977zm.381-.977 2.603 1.014q.308-.79.732-1.543l-2.433-1.372-2.433-1.372q-.619 1.095-1.072 2.258zm.902-1.901 2.433 1.372.521-.924-2.433-1.372-2.433-1.372-.521.924zm.521-.924 2.433 1.372.521-.924-2.433-1.372-2.433-1.372-.521.924zm.521-.924 2.433 1.372a7.7 7.7 0 0 0 .965-3.118l-2.783-.245-2.783-.246c-.028.32-.115.6-.265.865zm.615-1.991 2.783.245.094-1.068-2.783-.245-2.782-.246-.095 1.068zm.094-1.068 2.783.245.094-1.068-2.782-.245-2.783-.246-.094 1.068zm.095-1.068 2.782.245q.06-.68.297-1.285l-2.604-1.01-2.605-1.01c-.35.904-.568 1.845-.653 2.814zm.475-2.05 2.604 1.01.381-.983-2.605-1.01-2.604-1.01-.38.983zm.38-.983 2.605 1.01.381-.982-2.605-1.01-2.604-1.01-.381.983zm.381-.982 2.605 1.01a8.7 8.7 0 0 0 .59-2.987l-2.794-.054-2.793-.053c-.007.37-.076.723-.212 1.074zm.401-2.03 2.793.053.02-1.049-2.793-.053-2.793-.054-.02 1.049zm.02-1.05 2.793.054.02-1.049-2.793-.053-2.792-.053-.02 1.048zm.02-1.048 2.794.053q.02-1.054.035-2.092l-2.793-.042-2.793-.042q-.015 1.026-.035 2.07zm.036-2.08 2.793.041.016-1.032-2.793-.042-2.794-.042-.015 1.032zm.016-1.033 2.793.042.015-1.032-2.793-.042-2.793-.042-.016 1.032zm.015-1.032 2.793.042a8.7 8.7 0 0 0-.465-2.945l-2.643.905-2.643.905c.115.336.17.681.165 1.051zm-.315-1.998 2.643-.905-.331-.965-2.643.904-2.643.905.33.966zm-.33-.966 2.642-.904-.33-.966-2.644.905-2.642.905.33.965zm-.332-.965 2.643-.905a6.7 6.7 0 0 0-1.903-2.85l-1.86 2.084-1.86 2.084c.182.163.279.319.338.492zm-1.12-1.671 1.86-2.084-.79-.706-1.86 2.084-1.86 2.084.79.706zm-.79-.706 1.86-2.084-.79-.705-1.86 2.084-1.86 2.084.79.706zm-.79-.705 1.86-2.084a10 10 0 0 0-2.423-1.599l-1.184 2.53-1.184 2.53q.585.273 1.07.707zm-1.747-1.153 1.184-2.53-.956-.448-1.185 2.53-1.184 2.53.957.448zm-.957-.448 1.185-2.53-.957-.447-1.184 2.53-1.185 2.53.957.447zm-.957-.447 1.185-2.53a59 59 0 0 1-1.814-.888L55.7 31.606l-1.271 2.487q.987.504 1.987.973zm-1.9-.93 1.27-2.488-.943-.482-1.271 2.487-1.271 2.488.944.482zm-.944-.483 1.27-2.487-.943-.483-1.271 2.488-1.27 2.488.943.482zm-.944-.482 1.27-2.488a9.6 9.6 0 0 0-2.801-.925l-.46 2.755-.462 2.756c.418.07.808.199 1.182.39zm-1.992-.657.46-2.756-1.047-.175-.46 2.755-.461 2.756 1.047.175zm-1.048-.176.46-2.755-1.047-.175-.46 2.755-.461 2.755 1.048.176zm-1.048-.175.46-2.755a11.6 11.6 0 0 1-1.657-.405l-.86 2.658-.86 2.658q1.205.39 2.457.6zm-2.058-.502.86-2.658-1.01-.327-.86 2.658-.86 2.658 1.01.327zm-1.01-.327.86-2.658-1.01-.326-.86 2.657-.86 2.658 1.01.327zm-1.01-.327.86-2.657a12 12 0 0 0-2.684-.545l-.243 2.783-.244 2.783q.743.064 1.451.294zm-2.067-.42.243-2.782-1.057-.093-.244 2.783-.243 2.783 1.057.093zm-1.058-.092.244-2.783-1.058-.092-.243 2.783-.244 2.783 1.058.092zm-1.057-.092.243-2.783a12.7 12.7 0 0 0-2.702.05l.348 2.772.348 2.772a7 7 0 0 1 1.52-.028zm-2.111.04-.348-2.772-1.054.132.348 2.772.348 2.771 1.054-.132zm-1.054.132-.348-2.772-1.053.132.348 2.772.348 2.772 1.053-.133zm-1.053.132-.348-2.772q-1.14.143-2.258.356l.523 2.744.522 2.745q.942-.18 1.909-.301zm-2.083.328-.523-2.744-1.03.196.523 2.744.523 2.745 1.03-.197zm-1.03.197-.523-2.745-1.03.197.523 2.744.523 2.744 1.03-.196zm-1.03.196-.522-2.744q-1.15.219-2.277.538l.764 2.688.763 2.687q.887-.252 1.795-.425zm-2.035.482-.764-2.688-1.006.286.764 2.687.763 2.688 1.006-.286zm-1.007.285-.763-2.687-1.006.286.763 2.687.764 2.687 1.006-.285zm-1.006.286-.763-2.687q-1.357.385-2.569 1.106l1.429 2.4 1.428 2.401c.39-.231.8-.408 1.239-.533zm-1.903.82-1.429-2.4-.897.533 1.428 2.4 1.429 2.401.897-.534zm-.898.534-1.428-2.401-.897.534 1.428 2.4 1.429 2.401.897-.534zm-.897.534-1.428-2.401q-.742.44-1.565.8l1.114 2.561 1.114 2.562q1.14-.495 2.194-1.122zm-1.879.96-1.114-2.561-.982.427 1.114 2.561 1.114 2.562.982-.427zm-.982.427-1.113-2.561-.982.427 1.114 2.561 1.114 2.562.981-.427zm-.981.427L20.4 31.092a7.9 7.9 0 0 0-2.63 1.85l2.037 1.911 2.037 1.912c.22-.236.475-.416.784-.55zm-1.707 1.2-2.037-1.911-.726.773 2.037 1.911 2.037 1.912.726-.773zm-.726.773-2.037-1.911-.726.773 2.038 1.912 2.037 1.911.725-.773zm-.726.774-2.037-1.912q-.739.788-1.26 1.367l2.08 1.867 2.078 1.866q.464-.518 1.177-1.277zm-1.218 1.322-2.078-1.867-.493.549 2.079 1.866 2.078 1.866.493-.548zm-.492.548-2.079-1.866-.493.549 2.079 1.866 2.079 1.866.492-.549zm-.493.549-2.079-1.866c-.179.2-.381.434-.546.663a3.5 3.5 0 0 0-.367.641 2.9 2.9 0 0 0-.234 1.007c-.026.546.11 1.611 1.096 2.369l1.702-2.216 1.7-2.215c.977.749 1.108 1.8 1.082 2.328a2.7 2.7 0 0 1-.214.935 2.4 2.4 0 0 1-.222.404c-.022.03.011-.017.16-.184zm-.428.598-1.702 2.216.065.05 1.7-2.216 1.702-2.216-.064-.05zm.064.05-1.701 2.215.064.05 1.701-2.216 1.702-2.216-.065-.05zm.064.049-1.701 2.215a2.78 2.78 0 0 1-1.08-2.355c.02-.333.097-.575.116-.636.05-.157.098-.245.076-.2a9 9 0 0 1-.273.483l2.404 1.425 2.403 1.424c.183-.309.353-.609.479-.865.054-.11.154-.319.232-.562.033-.103.118-.38.14-.738.009-.151.104-1.486-1.094-2.407zm-.458.932-2.404-1.425-.523.883 2.403 1.424 2.403 1.425.524-.883z"/><path fill="#907d6c" d="M12.716 26.503c3.38-10.445 18.305-11.777 25.346-11.137 19.355-1.228 27.265 6.913 28.801 11.137 2.049 5.248 2.765 16.205-10.752 18.049-13.518 1.843-27.138 0-32.258-1.152-5.12-1.28-14.516-6.451-11.137-16.897"/><path fill="#434445" d="m30.772 15.616-.701-2.704zm-4.134.672-.36-2.77zm-2.062.374-.635-2.72zm-2.055.48-.635-2.72zm-1.893.843 1.597 2.292zm-1.73 1.205L17.3 16.898zm-1.627 1.3-1.887-2.06zm-2.945 2.936-2.2-1.72zm-1.319 1.687-2.2-1.72zm-.528 6.15-2.784.226zm.802 3.907 2.346-1.516zm.555.859 2.346-1.516zm.555.859-2.347 1.516zm1.277 1.604 2.006-1.945zm1.444 1.49-2.006 1.944zm1.636 1.263 1.379-2.43zm1.829 1.038-1.379 2.43zm1.92.847-.867 2.656zm2.011.656.867-2.655zm2.048.464-.359 2.77zm2.086.27.36-2.77zm2.094.178-.114 2.791zm2.101.086.114-2.792zm2.097.104-.165 2.789zm2.09.124.165-2.789zm2.09.158.256-2.782zm1.045.096.256-2.782zm1.045.096-.256 2.782zm2.096.163.178-2.787zm2.101.135-.178 2.788zm2.089-.176-.638-2.72zm1.037-.244-.638-2.72zm1.038-.243.638 2.72zm2.077-.34.257 2.782zm1.038-.096-.257-2.781zm3.106-.342-.403-2.764zm2.056-.3.403 2.765zm2.014-.484-.897-2.646zm1.973-.669-.897-2.645zm1.687-1.092 2.051 1.895zm1.4-1.516-2.051-1.896zm1.72-2.55 2.428 1.382zm.51-.895-2.428-1.382zm.444-2.967 2.792-.088zm-.032-1.036-2.792.087zm-.42-3.032-2.742.532zm-.768-2.938-2.59 1.048zm-.382-.944 2.59-1.048zm-.382-.943-2.59 1.048zm-1.061-1.749 2.135-1.801zm-1.36-1.61-2.134 1.8zm-1.57-1.382-1.517 2.345zm-1.78-1.153 1.517-2.345zm-1.9-.896-.845 2.662zm-8.045-2.487-.034-2.793zm-4.235-.124-.433 2.76zm-2.082-.327-.432 2.76zm-5.318-.005 2.197 1.726zm-.064.083-2.197-1.726zm-.065.081-2.196-1.726zm-2.161-.195.365-2.769-1.048-.138-.366 2.77-.365 2.769 1.048.138zm-1.049-.138.366-2.77a8.2 8.2 0 0 0-3.148.195l.702 2.704.701 2.704a2.6 2.6 0 0 1 1.014-.063zm-2.08.13-.702-2.705-1.032.268.702 2.704.702 2.704 1.031-.268zm-1.032.267-.702-2.704-1.031.268.701 2.704.702 2.704 1.032-.268zm-1.032.268-.701-2.704q-.868.225-1.726.336l.361 2.77.361 2.77q1.211-.157 2.407-.468zm-2.066.402-.36-2.77-1.035.135.361 2.77.361 2.77 1.034-.135zm-1.034.135-.36-2.77-1.035.135.361 2.77.361 2.77 1.034-.135zm-1.034.135-.36-2.77q-1.175.152-2.337.424l.636 2.72.635 2.72q.893-.208 1.787-.324zm-2.062.374-.635-2.72-1.027.24.635 2.72.635 2.72 1.028-.24zm-1.027.24-.635-2.72-1.028.24.635 2.72.635 2.72 1.028-.24zm-1.028.24-.635-2.72a8.2 8.2 0 0 0-2.855 1.27l1.597 2.293 1.597 2.292c.286-.2.59-.335.931-.415zm-1.893.843-1.597-2.292-.865.602 1.597 2.292 1.597 2.293.865-.603zm-.865.602-1.597-2.292-.865.603 1.597 2.292 1.597 2.292.865-.602zm-.865.603L17.3 16.898q-1.015.707-1.917 1.532l1.887 2.06 1.886 2.06q.622-.568 1.338-1.068zm-1.627 1.3-1.887-2.06-.761.697 1.886 2.06 1.887 2.061.761-.697zm-.762.698-1.886-2.06-.762.697 1.887 2.06 1.886 2.06.762-.697zm-.761.697-1.887-2.06q-.939.86-1.735 1.88l2.2 1.721 2.201 1.72a10 10 0 0 1 1.107-1.2zm-1.422 1.541-2.2-1.72-.66.843 2.2 1.72 2.201 1.721.66-.843zm-.66.844-2.2-1.721-.66.844 2.201 1.72 2.2 1.721.66-.844zm-.659.843-2.2-1.72a5.76 5.76 0 0 0-1.24 3.669l2.793-.032 2.793-.033a.2.2 0 0 1 .01-.089.2.2 0 0 1 .045-.074zm-.647 1.917-2.793.032.012 1.073 2.793-.033 2.794-.032-.013-1.073zm.012 1.072-2.793.033.012 1.072 2.794-.032 2.793-.032-.012-1.073zm.013 1.073-2.794.032q.015 1.164.104 2.282l2.784-.226 2.785-.225q-.075-.915-.086-1.895zm.094 2.089-2.784.225.082 1.015 2.785-.225 2.784-.225-.082-1.016zm.083 1.015-2.785.225.082 1.016 2.785-.225 2.784-.225-.082-1.016zm.082 1.016-2.785.225a6.8 6.8 0 0 0 1.075 3.166l2.347-1.516 2.346-1.516a1.2 1.2 0 0 1-.199-.584zm.637 1.875-2.347 1.516.555.859 2.347-1.516 2.346-1.516-.555-.859zm.555.859-2.347 1.516.555.859 2.347-1.516 2.346-1.516-.555-.859zm.555.859-2.347 1.516a13 13 0 0 0 1.618 2.032l2.006-1.944 2.006-1.945a7.6 7.6 0 0 1-.937-1.175zm1.277 1.604-2.006 1.944.722.745 2.006-1.944 2.005-1.945-.721-.745zm.722.745-2.006 1.944.722.745 2.005-1.945 2.006-1.944-.722-.745zm.721.744-2.005 1.944c.668.69 1.426 1.274 2.263 1.75l1.379-2.43 1.379-2.43a4.5 4.5 0 0 1-1.01-.778zm1.637 1.264-1.379 2.43.915.518 1.378-2.43 1.38-2.429-.915-.519zm.914.519-1.378 2.43.914.518 1.379-2.43 1.379-2.428-.915-.52zm.915.519-1.379 2.43q1.16.657 2.432 1.073l.867-2.656.866-2.656a7.7 7.7 0 0 1-1.407-.62zm1.92.847-.867 2.656 1.006.328.867-2.656.866-2.655-1.006-.329zm1.006.328-.867 2.656 1.005.328.867-2.656.867-2.655-1.006-.328zm1.005.328-.867 2.656q1.253.408 2.556.578l.36-2.77.359-2.77a8.5 8.5 0 0 1-1.541-.35zm2.048.464-.359 2.77 1.043.135.36-2.77.358-2.77-1.042-.136zm1.043.135-.359 2.77 1.043.135.36-2.77.358-2.77-1.043-.135zm1.043.135-.36 2.77q1.167.151 2.34.2l.114-2.792.113-2.791a21 21 0 0 1-1.848-.157zm2.094.178-.114 2.791 1.051.043.114-2.791.113-2.791-1.05-.043zm1.05.043-.113 2.791 1.05.043.114-2.791.114-2.792-1.05-.042zm1.051.043-.113 2.79q1.026.043 2.045.103l.165-2.789.165-2.788q-1.071-.064-2.148-.108zm2.097.104-.165 2.789 1.045.062.165-2.79.165-2.788-1.045-.062zm1.045.062-.165 2.789 1.045.061.165-2.788.165-2.789-1.045-.062zm1.045.062L36.86 47.8q1 .06 2 .152l.255-2.782.256-2.782a67 67 0 0 0-2.18-.165zm2.09.158-.256 2.782 1.045.096.256-2.782.256-2.782-1.045-.096zm1.045.096-.256 2.782 1.045.096.256-2.782.256-2.782-1.045-.096zm1.045.096-.256 2.782a78 78 0 0 0 2.173.17l.179-2.788.178-2.788a73 73 0 0 1-2.018-.158zm2.096.163-.178 2.788 1.05.067.178-2.787.179-2.788-1.05-.067zm1.05.068-.178 2.787 1.05.068.18-2.788.178-2.788-1.051-.067zm1.051.067-.178 2.788a9.9 9.9 0 0 0 2.904-.245l-.637-2.72-.638-2.719q-.64.15-1.272.108zm2.089-.176.637 2.72 1.038-.244-.638-2.72-.638-2.72-1.037.244zm1.037-.244.638 2.72 1.038-.243-.638-2.72-.638-2.72-1.038.244zm1.038-.243.638 2.72q.854-.2 1.696-.278l-.257-2.782-.258-2.781q-1.235.114-2.457.401zm2.077-.34.257 2.782 1.039-.096-.258-2.782-.257-2.781-1.039.096zm1.038-.096.258 2.782 1.039-.096-.258-2.782-.257-2.782-1.04.097zm1.04-.096.257 2.782a43 43 0 0 0 2.212-.264l-.403-2.764-.403-2.764a37 37 0 0 1-1.921.228zm2.066-.246.403 2.764 1.028-.15-.403-2.764-.403-2.764-1.028.15zm1.028-.15.403 2.764 1.028-.15-.403-2.764-.403-2.764-1.028.15zm1.028-.15.403 2.765q1.28-.187 2.508-.603l-.897-2.646-.897-2.646a8.6 8.6 0 0 1-1.52.366zm2.014-.484.897 2.646.986-.335-.896-2.645-.898-2.646-.986.334zm.986-.334.897 2.645.987-.334-.897-2.646-.897-2.645-.986.334zm.987-.335.897 2.646a6.8 6.8 0 0 0 2.841-1.843l-2.051-1.895-2.052-1.896a1.23 1.23 0 0 1-.532.343zm1.687-1.092 2.051 1.895.7-.758-2.05-1.895-2.053-1.896-.7.758zm.7-.758 2.052 1.895.7-.758-2.051-1.895-2.052-1.896-.7.758zm.7-.758 2.052 1.895a11.8 11.8 0 0 0 1.587-2.167l-2.428-1.382-2.428-1.382q-.35.617-.834 1.14zm1.21-1.654 2.429 1.382.51-.896-2.429-1.382-2.428-1.381-.51.895zm.51-.895 2.428 1.381.51-.895-2.428-1.382-2.428-1.382-.51.896zm.51-.896 2.428 1.382c.596-1.047.879-2.2.841-3.401l-2.792.088-2.792.087a.8.8 0 0 1-.113.462zm.477-1.931 2.792-.088-.033-1.036-2.792.088-2.792.087.033 1.036zm-.033-1.036 2.792-.088-.032-1.036-2.792.088-2.792.087.032 1.036zm-.032-1.036 2.792-.088a15.6 15.6 0 0 0-.276-2.477l-2.742.531-2.743.532q.15.773.177 1.59zm-.226-2.034 2.742-.531-.193-.998-2.743.532-2.742.531.193.998zm-.194-.997 2.743-.532-.193-.998-2.743.532-2.742.531.193.998zm-.193-.998 2.743-.532a13.3 13.3 0 0 0-.729-2.457l-2.59 1.048-2.588 1.048q.28.693.422 1.424zm-.575-1.941 2.59-1.048-.382-.944-2.59 1.048-2.59 1.049.383.943zm-.382-.944 2.59-1.048-.382-.943-2.59 1.048-2.59 1.048.383.944zm-.382-.943 2.59-1.048a9.3 9.3 0 0 0-1.516-2.502l-2.135 1.801-2.135 1.802c.27.319.467.65.607.995zm-1.061-1.749 2.135-1.801-.68-.806-2.135 1.802L61.73 24.1l.68.805zm-.68-.805 2.136-1.802-.68-.805-2.135 1.802-2.135 1.8.68.806zm-.68-.805 2.136-1.802a9.9 9.9 0 0 0-2.188-1.926l-1.517 2.346-1.518 2.345q.544.352.953.838zm-1.57-1.382 1.518-2.346-.89-.576-1.518 2.345-1.517 2.346.89.576zm-.89-.576 1.517-2.346-.89-.576-1.518 2.345-1.517 2.346.89.576zm-.89-.577 1.517-2.345a10.7 10.7 0 0 0-2.57-1.214l-.846 2.663-.846 2.662c.434.138.84.33 1.227.58zm-1.9-.896.847-2.663-1.007-.32-.847 2.662-.846 2.663 1.008.32zm-1.007-.32.847-2.663-1.008-.32-.846 2.662-.846 2.662 1.007.32zm-1.007-.32.846-2.663a31 31 0 0 1-1.832-.647l-1.012 2.604-1.012 2.604q1.073.416 2.163.763zm-1.998-.706 1.012-2.604-.99-.384-1.011 2.604-1.012 2.603.99.385zm-.99-.384 1.012-2.604-.99-.385-1.011 2.604-1.012 2.604.99.384zm-.99-.385 1.013-2.604a8.2 8.2 0 0 0-3.1-.561l.034 2.793.033 2.794c.354-.005.683.055 1.009.182zm-2.053-.372-.034-2.793-1.065.013.034 2.793.034 2.793 1.064-.012zm-1.065.013-.034-2.793-1.064.013.034 2.793.033 2.793 1.065-.013zm-1.064.013-.034-2.793a10 10 0 0 1-1.639-.117l-.433 2.76-.433 2.76q1.276.2 2.572.183zm-2.106-.15.433-2.76-1.04-.163-.434 2.76-.432 2.76 1.04.163zm-1.04-.163.432-2.76-1.04-.163-.434 2.76-.432 2.76 1.04.162zm-1.042-.164.433-2.76a15 15 0 0 0-2.577-.177l.05 2.793.05 2.793a9.3 9.3 0 0 1 1.612.111zm-2.094-.144-.05-2.793-1.054.02.051 2.792.05 2.793 1.054-.019zm-1.053.02-.05-2.794-1.054.02.05 2.792.051 2.794 1.054-.02zm-1.053.018-.051-2.793c-.371.007-.72.02-1.007.046a5 5 0 0 0-.547.079 3 3 0 0 0-.506.151c-.118.047-.719.276-1.203.893l2.196 1.726 2.197 1.725a2.75 2.75 0 0 1-1.141.854 2.4 2.4 0 0 1-.381.116c-.109.023-.164.025-.112.02.085-.007.274-.017.605-.023zm-1.118.101-2.197-1.725-.064.082 2.197 1.726 2.196 1.726.065-.082zm-.064.083-2.197-1.726-.064.082 2.196 1.725 2.197 1.726.064-.082zm-.065.081-2.196-1.726a2.76 2.76 0 0 1 1.386-.94 2.5 2.5 0 0 1 .476-.09c.137-.011.213-.004.165-.007a9 9 0 0 1-.578-.062l-.366 2.769-.365 2.77c.37.048.726.088 1.026.103.138.007.358.015.6-.006a3 3 0 0 0 .6-.11c.156-.046.883-.255 1.449-.975zm-1.113-.056.366-2.77-1.049-.138-.365 2.77-.366 2.769 1.049.138z"/><path fill="#434445" d="M48.047 5.92a2.794 2.794 0 0 0-5.275-1.84zm-2.67-.826 2.295 1.592.217-.313.125-.358zM44.2 6.79 41.905 5.2zm-2.133 4.717-2.663-.845zm-.763 1.973-2.539-1.165zm-.443.966-2.54-1.164zm-.814 3.01-2.787.188zm.064 3.437 2.238 1.672zm-.154.207 2.113 1.827.065-.076.06-.08zm-.276.319-2.113-1.828-.349.404-.176.503zm-2.67-.826a2.794 2.794 0 0 0 5.274 1.84zM45.408 5l-2.637-.92-.033.094 2.637.92 2.638.92.033-.094zm-.033.094-2.296-1.59-1.175 1.695L44.2 6.79l2.296 1.591 1.175-1.695zM44.201 6.79 41.905 5.2c-.821 1.185-1.518 2.366-1.861 3.45l2.663.844 2.662.844c.083-.259.383-.88 1.128-1.956zm-1.495 2.703-2.662-.845-.32 1.007 2.663.845 2.663.844.32-1.007zm-.319 1.007-2.663-.845-.319 1.007 2.663.845 2.663.844.319-1.007zm-.32 1.007-2.662-.845a14 14 0 0 1-.639 1.653l2.54 1.165 2.538 1.165a20 20 0 0 0 .886-2.294zm-.762 1.973-2.539-1.165-.443.967 2.539 1.164 2.54 1.165.442-.966zm-.443.966-2.54-1.164-.442.966 2.539 1.165 2.539 1.164.443-.966zm-.443.966-2.54-1.164a6.95 6.95 0 0 0-.618 3.396l2.787-.188 2.787-.189c-.017-.26.025-.476.123-.69zm-.37 2.044-2.788.188.073 1.077 2.787-.189 2.787-.188-.073-1.077zm.072 1.076-2.787.189.073 1.077 2.787-.189 2.787-.188-.073-1.077zm.073 1.077-2.787.189c.02.307.017.455.015.493-.001.02.001-.054.03-.182.016-.068.046-.18.101-.318.053-.133.15-.341.321-.57l2.238 1.672 2.238 1.672c.365-.489.496-.98.547-1.204a4.5 4.5 0 0 0 .1-.715c.025-.39.012-.814-.016-1.225zm-.082 1.284-2.238-1.672-.154.207 2.238 1.672 2.238 1.671.154-.206zm-.154.207-2.113-1.828-.276.32 2.113 1.827 2.113 1.827.276-.32zm-.276.319-2.638-.92-.033.094 2.638.92 2.637.92.033-.094z"/></svg>