<svg xmlns="http://www.w3.org/2000/svg" fill="none" viewBox="0 0 21 21"><mask id="a" width="21" height="21" x="0" y="0" maskUnits="userSpaceOnUse" style="mask-type:luminance"><path fill="#fff" d="M20.505 0H0v20.505h20.505z"/></mask><g mask="url(#a)"><path fill="#4285f4" d="M20.094 10.486c0-.727-.065-1.426-.186-2.097h-9.656v3.966h5.518a4.72 4.72 0 0 1-2.046 3.094v2.572h3.313c1.939-1.785 3.057-4.413 3.057-7.535"/><path fill="#34a853" d="M10.252 20.506c2.768 0 5.089-.919 6.785-2.484l-3.313-2.573c-.918.615-2.092.979-3.472.979-2.67 0-4.93-1.804-5.736-4.227H1.09v2.656a10.25 10.25 0 0 0 9.162 5.649"/><path fill="#fbbc04" d="M4.516 12.2a6.2 6.2 0 0 1-.322-1.947c0-.676.117-1.333.322-1.948V5.648H1.09A10.25 10.25 0 0 0 0 10.253c0 1.654.396 3.22 1.09 4.604z"/><path fill="#e94235" d="M10.252 4.078c1.505 0 2.857.517 3.92 1.533l2.94-2.94C15.336 1.015 13.016 0 10.252 0A10.25 10.25 0 0 0 1.09 5.648l3.426 2.656c.806-2.423 3.066-4.226 5.736-4.226"/></g></svg>