<svg xmlns="http://www.w3.org/2000/svg" fill="none" viewBox="0 0 28 28"><path fill="#767676" d="M18.972 7.574a1.43 1.43 0 0 1 1.283 1.422v11.439l-.007.146a1.43 1.43 0 0 1-1.276 1.275l-.146.008H7.446l-.146-.008a1.43 1.43 0 0 1-1.276-1.275l-.007-.146v-1.989c0-.659.466-1.216 1.03-1.556.68-.41 1.327-1.088 1.405-2.074l.007-.2c0-.976-.56-1.686-1.208-2.151l-.28-.185c-.524-.312-.957-.818-1.009-1.416l-.004-.12V8.995c0-.79.64-1.43 1.43-1.43h11.438zM7.387 10.738c0-.01-.003.013.038.072.05.071.144.162.279.243.972.58 2.185 1.736 2.185 3.563 0 1.785-1.142 2.917-2.102 3.497a1 1 0 0 0-.3.262.3.3 0 0 0-.04.074v1.986h11.379V8.996H7.387z"/><path fill="#767676" d="M20.613 13.285c.79 0 1.43.64 1.43 1.43v1.43a1.43 1.43 0 0 1-2.86 0v-1.43c0-.79.64-1.43 1.43-1.43m-5.719-7.149a1.43 1.43 0 0 1 0 2.86h-1.43a1.431 1.431 0 0 1 0-2.86z"/></svg>