<svg width="24" height="24" viewBox="0 0 24 24" fill="none" xmlns="http://www.w3.org/2000/svg">
<path d="M13.714 3.42896H6.85686C6.40221 3.42896 5.96617 3.60957 5.64468 3.93106C5.32319 4.25255 5.14258 4.68858 5.14258 5.14324V18.8575C5.14258 19.3122 5.32319 19.7482 5.64468 20.0697C5.96617 20.3912 6.40221 20.5718 6.85686 20.5718H17.1426C17.5972 20.5718 18.0333 20.3912 18.3548 20.0697C18.6763 19.7482 18.8569 19.3122 18.8569 18.8575V8.57181L13.714 3.42896Z" stroke="#5C5C64" stroke-linecap="round" stroke-linejoin="round"/>
<path d="M13.7144 3.42896V8.57181H18.8572" stroke="#5C5C64" stroke-linecap="round" stroke-linejoin="round"/>
<path d="M15.4289 12.8567H8.57178" stroke="#5C5C64" stroke-linecap="round" stroke-linejoin="round"/>
<path d="M15.4289 16.2855H8.57178" stroke="#5C5C64" stroke-linecap="round" stroke-linejoin="round"/>
<path d="M10.2861 9.42896H9.42892H8.57178" stroke="#5C5C64" stroke-linecap="round" stroke-linejoin="round"/>
</svg>
