<svg viewBox="0 0 28 28" fill="none" xmlns="http://www.w3.org/2000/svg">
<path d="M14.0046 0C8.1597 0 6.4503 0.00603128 6.11802 0.0336028C4.91856 0.133334 4.17217 0.322243 3.35903 0.7272C2.73238 1.03846 2.23817 1.39926 1.75041 1.90502C0.862118 2.82738 0.323758 3.96212 0.128872 5.31097C0.0341201 5.9658 0.00655603 6.09935 0.000957085 9.44412C-0.00119636 10.559 0.000957085 12.0264 0.000957085 13.9945C0.000957085 19.8362 0.00741741 21.5444 0.0354121 21.8761C0.132317 23.0436 0.31536 23.7781 0.702979 24.5816C1.44376 26.1195 2.85857 27.2741 4.52534 27.7049C5.10246 27.8535 5.73988 27.9354 6.55819 27.9741C6.90489 27.9892 10.4387 28 13.9746 28C17.5106 28 21.0465 27.9957 21.3846 27.9785C22.3321 27.9339 22.8823 27.86 23.4907 27.7027C24.3171 27.4907 25.0874 27.1008 25.7476 26.5603C26.4078 26.0197 26.942 25.3414 27.3131 24.5729C27.6931 23.7889 27.8859 23.0263 27.9731 21.9198C27.992 21.6786 28 17.8321 28 13.9908C28 10.1489 27.9914 6.30958 27.9724 6.06833C27.8841 4.94393 27.6914 4.18786 27.2991 3.38872C26.9771 2.73454 26.6196 2.24601 26.1007 1.74649C25.1747 0.861611 24.042 0.323104 22.692 0.12838C22.038 0.0338182 21.9077 0.00581588 18.5613 0H14.0046Z" fill="url(#paint0_radial_4121_17411)"/>
<path d="M14.0046 0C8.1597 0 6.4503 0.00603128 6.11802 0.0336028C4.91856 0.133334 4.17217 0.322243 3.35903 0.7272C2.73238 1.03846 2.23817 1.39926 1.75041 1.90502C0.862118 2.82738 0.323758 3.96212 0.128872 5.31097C0.0341201 5.9658 0.00655603 6.09935 0.000957085 9.44412C-0.00119636 10.559 0.000957085 12.0264 0.000957085 13.9945C0.000957085 19.8362 0.00741741 21.5444 0.0354121 21.8761C0.132317 23.0436 0.31536 23.7781 0.702979 24.5816C1.44376 26.1195 2.85857 27.2741 4.52534 27.7049C5.10246 27.8535 5.73988 27.9354 6.55819 27.9741C6.90489 27.9892 10.4387 28 13.9746 28C17.5106 28 21.0465 27.9957 21.3846 27.9785C22.3321 27.9339 22.8823 27.86 23.4907 27.7027C24.3171 27.4907 25.0874 27.1008 25.7476 26.5603C26.4078 26.0197 26.942 25.3414 27.3131 24.5729C27.6931 23.7889 27.8859 23.0263 27.9731 21.9198C27.992 21.6786 28 17.8321 28 13.9908C28 10.1489 27.9914 6.30958 27.9724 6.06833C27.8841 4.94393 27.6914 4.18786 27.2991 3.38872C26.9771 2.73454 26.6196 2.24601 26.1007 1.74649C25.1747 0.861611 24.042 0.323104 22.692 0.12838C22.038 0.0338182 21.9077 0.00581588 18.5613 0H14.0046Z" fill="url(#paint1_radial_4121_17411)"/>
<path d="M13.9983 3.66211C11.1911 3.66211 10.8388 3.67439 9.73621 3.72458C8.6358 3.77498 7.88468 3.94924 7.22745 4.20492C6.54761 4.46901 5.97091 4.82227 5.39638 5.39718C4.82141 5.97187 4.46824 6.54872 4.20337 7.22853C3.94711 7.88616 3.77268 8.6377 3.72315 9.73798C3.67405 10.8408 3.66113 11.1935 3.66113 14.0014C3.66113 16.8094 3.67362 17.1608 3.72358 18.2636C3.77419 19.3643 3.9484 20.1157 4.2038 20.7731C4.46803 21.4531 4.82119 22.0299 5.39595 22.6046C5.97027 23.1798 6.54696 23.5339 7.22637 23.798C7.88403 24.0536 8.63537 24.2279 9.73556 24.2783C10.8381 24.3285 11.1902 24.3408 13.9972 24.3408C16.8047 24.3408 17.1559 24.3285 18.2585 24.2783C19.3589 24.2279 20.1108 24.0536 20.7685 23.798C21.4481 23.5339 22.024 23.1798 22.5983 22.6046C23.1733 22.0299 23.5264 21.4531 23.7913 20.7733C24.0454 20.1157 24.2198 19.3641 24.2715 18.2638C24.321 17.161 24.334 16.8094 24.334 14.0014C24.334 11.1935 24.321 10.8411 24.2715 9.73819C24.2198 8.63748 24.0454 7.88616 23.7913 7.22875C23.5264 6.54872 23.1733 5.97187 22.5983 5.39718C22.0233 4.82205 21.4483 4.46879 20.7679 4.20492C20.1089 3.94924 19.3574 3.77498 18.2569 3.72458C17.1544 3.67439 16.8034 3.66211 13.9953 3.66211H13.9983ZM13.071 5.52534C13.3462 5.52491 13.6533 5.52534 13.9983 5.52534C16.7581 5.52534 17.0853 5.53525 18.1751 5.5848C19.1829 5.63089 19.7299 5.79934 20.0943 5.94086C20.5766 6.12826 20.9205 6.35228 21.2821 6.71415C21.6439 7.07603 21.8678 7.42067 22.0556 7.90318C22.1971 8.26721 22.3657 8.81433 22.4116 9.82241C22.4611 10.9124 22.4719 11.2398 22.4719 13.9991C22.4719 16.7584 22.4611 17.0858 22.4116 18.1757C22.3655 19.1838 22.1971 19.7309 22.0556 20.095C21.8683 20.5775 21.6439 20.921 21.2821 21.2827C20.9203 21.6446 20.5768 21.8686 20.0943 22.056C19.7303 22.1982 19.1829 22.3662 18.1751 22.4123C17.0855 22.4618 16.7581 22.4726 13.9983 22.4726C11.2382 22.4726 10.9111 22.4618 9.82148 22.4123C8.81367 22.3658 8.2667 22.1973 7.90212 22.0558C7.41975 21.8684 7.0752 21.6444 6.71342 21.2825C6.35164 20.9206 6.12768 20.5768 5.9399 20.0941C5.79842 19.7301 5.62981 19.183 5.58394 18.1749C5.53441 17.0849 5.52451 16.7575 5.52451 13.9965C5.52451 11.2355 5.53441 10.9098 5.58394 9.81983C5.63002 8.81175 5.79842 8.26462 5.9399 7.90016C6.12725 7.41766 6.35164 7.07301 6.71342 6.71114C7.0752 6.34926 7.41975 6.12524 7.90212 5.93741C8.26648 5.79524 8.81367 5.62723 9.82148 5.58092C10.775 5.53784 11.1446 5.52491 13.071 5.52276V5.52534ZM19.5158 7.2421C19.2705 7.2421 19.0307 7.31488 18.8267 7.45123C18.6227 7.58758 18.4637 7.78138 18.3698 8.00812C18.276 8.23486 18.2514 8.48435 18.2993 8.72504C18.3472 8.96572 18.4654 9.1868 18.6389 9.3603C18.8124 9.5338 19.0335 9.65193 19.2741 9.69976C19.5148 9.74758 19.7642 9.72295 19.9908 9.62898C20.2175 9.535 20.4112 9.37591 20.5474 9.17182C20.6836 8.96773 20.7563 8.7278 20.7562 8.48239C20.7562 7.79741 20.2006 7.24167 19.5158 7.24167V7.2421ZM13.9983 8.69177C11.0668 8.69177 8.69006 11.0692 8.69006 14.0014C8.69006 16.9337 11.0668 19.31 13.9983 19.31C16.9298 19.31 19.3059 16.9337 19.3059 14.0014C19.3059 11.0692 16.9296 8.69177 13.9981 8.69177H13.9983ZM13.9983 10.555C15.9011 10.555 17.4438 12.0979 17.4438 14.0014C17.4438 15.9047 15.9011 17.4479 13.9983 17.4479C12.0953 17.4479 10.5528 15.9047 10.5528 14.0014C10.5528 12.0979 12.0953 10.555 13.9983 10.555Z" fill="white"/>
<defs>
<radialGradient id="paint0_radial_4121_17411" cx="0" cy="0" r="1" gradientUnits="userSpaceOnUse" gradientTransform="translate(7.43754 30.1566) rotate(-90) scale(27.7501 25.8097)">
<stop stop-color="#FFDD55"/>
<stop offset="0.1" stop-color="#FFDD55"/>
<stop offset="0.5" stop-color="#FF543E"/>
<stop offset="1" stop-color="#C837AB"/>
</radialGradient>
<radialGradient id="paint1_radial_4121_17411" cx="0" cy="0" r="1" gradientTransform="matrix(2.4347 12.1631 -50.1358 10.0414 -4.69015 2.01707)" gradientUnits="userSpaceOnUse">
<stop stop-color="#3771C8"/>
<stop offset="0.128" stop-color="#3771C8"/>
<stop offset="1" stop-color="#6600FF" stop-opacity="0"/>
</radialGradient>
</defs>
</svg>
