<svg xmlns="http://www.w3.org/2000/svg" fill="none" viewBox="0 0 87 24"><path fill="#54d19d" d="M8.563 5.38c3.626 0 6.565 2.933 6.565 6.552s-2.94 6.55-6.565 6.55a6.54 6.54 0 0 1-2.878-.663V24H2V12.046h.003L2 11.932C2 8.313 4.939 5.38 8.563 5.38m29.65 1.448h.07A3.4 3.4 0 0 1 39.136 6a4 4 0 0 1 1.151-.552q.645-.183 1.358-.183 1.681 0 2.949.758a5.3 5.3 0 0 1 1.98 2.092q.738 1.333.738 3.126 0 1.38-.438 2.552a6 6 0 0 1-1.267 2.046 5.4 5.4 0 0 1-1.98 1.31q-1.153.46-2.65.46-1.91 0-3.338-.78a5.43 5.43 0 0 1-2.211-2.231q-.783-1.448-.783-3.38V0h3.569zm17.013-1.563q1.98 0 3.362.827a5.36 5.36 0 0 1 2.142 2.23c.506.935.906 1.985.906 3.15v6.11h-3.647v-2.134h-.092q-.323.621-.83 1.127a3.6 3.6 0 0 1-1.243.758q-.714.276-1.704.276-1.566 0-2.764-.804a5.45 5.45 0 0 1-1.866-2.161q-.668-1.38-.668-3.104 0-1.793.783-3.195a5.8 5.8 0 0 1 2.211-2.253q1.452-.828 3.41-.827M20.104 17.58H16.51V5.54h3.593zm7.268-12.316q1.843 0 3.133.713 1.313.712 2.004 1.907.69 1.195.69 2.667v7.03h-3.57v-6.938q0-.621-.299-1.126a2.15 2.15 0 0 0-.829-.829 2.1 2.1 0 0 0-1.151-.32 2.26 2.26 0 0 0-2.004 1.149q-.3.505-.3 1.126v6.937h-3.57v-7.03q0-1.471.714-2.666.715-1.195 2.028-1.907 1.335-.713 3.154-.713m44.664 3.287h-2.495q-.898 0-1.543.39a2.63 2.63 0 0 0-1.014 1.035q-.344.644-.344 1.471c0 .552.18 1.297.41 1.742q.37.644 1.014 1.035.645.367 1.543.367h2.496v2.99H69.47q-1.843 0-3.27-.76a6.06 6.06 0 0 1-2.258-2.091c-.552-.89-.895-2.149-.895-3.283q0-1.701.829-3.011a6 6 0 0 1 2.257-2.116q1.428-.78 3.27-.781h2.633zm4.973 1.678h1.565l2.695-4.46h3.716l-2.91 4.92q1.382.575 2.142 1.77.783 1.172.783 2.759v2.345h-3.593v-2.345q0-.644-.322-1.15a2.2 2.2 0 0 0-.806-.828c-.337-.199-1.221-.299-1.651-.299h-1.62v4.622h-3.57V0h3.57zM8.563 9.21a2.723 2.723 0 0 0-2.724 2.722c0 1.502 1.22 2.72 2.724 2.72a2.723 2.723 0 0 0 2.726-2.72 2.723 2.723 0 0 0-2.726-2.721m32.414-.82q-.828 0-1.45.415-.599.39-.922 1.08-.322.69-.322 1.563t.322 1.586q.323.69.922 1.104.622.39 1.45.391.83 0 1.43-.391.597-.414.92-1.104.345-.713.346-1.586 0-.874-.346-1.563a2.54 2.54 0 0 0-.92-1.08q-.6-.414-1.43-.414m14.202 0q-.83 0-1.45.415-.623.39-.945 1.08t-.322 1.54q0 .874.322 1.587.323.712.944 1.126.622.39 1.45.391.807 0 1.406-.391.622-.414.944-1.126a3.8 3.8 0 0 0 .323-1.586q0-.852-.323-1.541-.323-.69-.944-1.08-.6-.414-1.405-.414M18.307 0q.852 0 1.474.644.622.62.622 1.471 0 .85-.622 1.47a2.02 2.02 0 0 1-1.474.622q-.852 0-1.474-.621a2 2 0 0 1-.622-1.47q0-.852.622-1.472.622-.645 1.474-.644"/></svg>