<svg xmlns="http://www.w3.org/2000/svg" fill="none" viewBox="0 0 69 20"><path fill="#54d19d" d="M5.98 4.604c2.954 0 5.35 2.39 5.35 5.34a5.345 5.345 0 0 1-5.35 5.34 5.3 5.3 0 0 1-2.347-.542v5.037H.63v-9.742h.002L.63 9.943a5.345 5.345 0 0 1 5.35-5.34m24.166 1.18h.055q.282-.393.696-.675.43-.3.938-.449.525-.15 1.108-.15 1.37 0 2.402.618t1.614 1.705q.6 1.087.6 2.548 0 1.125-.356 2.08a4.9 4.9 0 0 1-1.032 1.668 4.4 4.4 0 0 1-1.614 1.067q-.939.375-2.16.375-1.557 0-2.721-.636a4.43 4.43 0 0 1-1.802-1.819q-.638-1.18-.639-2.754V.22h2.91zM44.01 4.51q1.615 0 2.74.675a4.37 4.37 0 0 1 1.746 1.817c.413.762.738 1.617.739 2.566v4.98h-2.973V12.81h-.075q-.262.506-.676.917-.413.395-1.014.62-.581.224-1.388.224-1.277 0-2.252-.656a4.44 4.44 0 0 1-1.52-1.76q-.546-1.125-.546-2.53 0-1.462.639-2.604a4.7 4.7 0 0 1 1.802-1.836q1.182-.675 2.778-.675M15.385 14.548h-2.929V4.734h2.929zM21.309 4.51q1.501 0 2.552.58 1.071.581 1.634 1.556.563.974.563 2.173v5.729h-2.91V8.895q.001-.507-.244-.92a1.75 1.75 0 0 0-.675-.673 1.7 1.7 0 0 0-.939-.263 1.84 1.84 0 0 0-1.633.937 1.77 1.77 0 0 0-.244.919v5.653h-2.909V8.819q0-1.2.582-2.173.582-.975 1.652-1.555 1.088-.58 2.57-.581M57.71 7.188h-2.032q-.732 0-1.258.32-.526.3-.826.843-.282.525-.281 1.199c0 .45.147 1.056.335 1.419q.3.525.826.844.526.3 1.258.3h2.033v2.435h-2.146q-1.501 0-2.666-.618a4.94 4.94 0 0 1-1.839-1.705c-.45-.725-.73-1.75-.73-2.675q0-1.386.676-2.454A4.9 4.9 0 0 1 52.9 5.37q1.163-.636 2.665-.637h2.145zm4.054 1.369h1.276l2.197-3.635h3.028l-2.372 4.01q1.126.468 1.746 1.442.638.956.638 2.249v1.91h-2.928v-1.91q0-.525-.263-.937a1.8 1.8 0 0 0-.657-.674c-.275-.163-.995-.244-1.346-.244h-1.32v3.765h-2.91V.22h2.91zM5.98 7.727c-1.227 0-2.221.992-2.221 2.216s.994 2.217 2.22 2.217S8.2 11.168 8.2 9.943a2.22 2.22 0 0 0-2.22-2.216m26.418-.67q-.675 0-1.183.339a2.07 2.07 0 0 0-.75.88q-.264.562-.264 1.274t.263 1.293q.263.561.751.9.507.317 1.183.317.675 0 1.164-.318.488-.337.75-.9.282-.58.282-1.292t-.281-1.275a2.07 2.07 0 0 0-.751-.88q-.489-.336-1.164-.337m11.574 0q-.676 0-1.183.339a2.03 2.03 0 0 0-.77.88 2.9 2.9 0 0 0-.262 1.255q0 .713.263 1.293.262.58.77.918.506.318 1.182.318.657 0 1.145-.318.507-.337.77-.918.263-.58.263-1.293a2.9 2.9 0 0 0-.263-1.256 2.03 2.03 0 0 0-.77-.88 1.97 1.97 0 0 0-1.145-.337M13.922.22q.693 0 1.2.525.507.505.507 1.2 0 .691-.507 1.198a1.64 1.64 0 0 1-1.2.505q-.696 0-1.203-.505a1.64 1.64 0 0 1-.507-1.199q0-.693.507-1.199Q13.227.22 13.92.22"/></svg>