<svg width="18" height="18" viewBox="0 0 18 18" fill="none" xmlns="http://www.w3.org/2000/svg">
<path d="M12.1963 4.86914C12.6597 4.91618 13.0214 5.30737 13.0215 5.7832V13.1367L13.0166 13.2305C12.9726 13.663 12.6288 14.0069 12.1963 14.0508L12.1025 14.0557H4.78711C4.31188 14.0549 3.92005 13.6935 3.87305 13.2305L3.86816 13.1367V11.8584C3.86825 11.4353 4.16828 11.0766 4.53027 10.8574C4.99582 10.5761 5.43841 10.099 5.43848 9.39551C5.43827 8.67879 4.96704 8.18524 4.48047 7.89453C4.12203 7.67993 3.83015 7.32396 3.83008 6.90625V5.7832C3.83019 5.27615 4.24213 4.86504 4.74902 4.86426H12.1025L12.1963 4.86914ZM4.74902 6.90625C4.74898 6.89418 4.74417 6.90733 4.77344 6.94922C4.80564 6.99513 4.86617 7.0539 4.95215 7.10547C5.57729 7.47897 6.35721 8.22084 6.35742 9.39551C6.35735 10.5427 5.62339 11.2713 5.00586 11.6445C4.91376 11.7004 4.84843 11.7632 4.81348 11.8125C4.79103 11.8443 4.78723 11.8613 4.78711 11.8633V13.1367H12.1025V5.7832H4.74902V6.90625Z" fill="#767676"/>
<path d="M13.252 8.54053C13.7595 8.54061 14.1708 8.95197 14.1709 9.45947V10.3784C14.1709 10.886 13.7595 11.2983 13.252 11.2983C12.7445 11.2981 12.333 10.8859 12.333 10.3784V9.45947C12.3331 8.95206 12.7446 8.54075 13.252 8.54053ZM9.5752 3.94482C10.0826 3.94498 10.4939 4.35643 10.4941 4.86377C10.4941 5.37128 10.0827 5.78353 9.5752 5.78369H8.65527C8.14807 5.78321 7.73635 5.37108 7.73633 4.86377C7.73655 4.35663 8.14819 3.94531 8.65527 3.94482H9.5752Z" fill="#767676"/>
</svg>
