<svg width="11" height="11" viewBox="0 0 11 11" fill="none" xmlns="http://www.w3.org/2000/svg">
<path d="M8.36621 0.924316C8.82966 0.971353 9.1913 1.36255 9.19141 1.83838V9.19189L9.18652 9.28564C9.14249 9.71814 8.79875 10.0621 8.36621 10.106L8.27246 10.1108H0.957031C0.481798 10.1101 0.0899731 9.74866 0.0429688 9.28564L0.0380859 9.19189V7.91357C0.0381709 7.49048 0.338204 7.13173 0.700195 6.9126C1.16574 6.63124 1.60833 6.15422 1.6084 5.45068C1.60819 4.73397 1.13696 4.24041 0.650391 3.94971C0.291954 3.73511 7.28856e-05 3.37914 0 2.96143V1.83838C0.000107889 1.33133 0.412051 0.92022 0.918945 0.919434H8.27246L8.36621 0.924316ZM0.918945 2.96143C0.918902 2.94936 0.914087 2.9625 0.943359 3.00439C0.975559 3.0503 1.0361 3.10908 1.12207 3.16064C1.74722 3.53414 2.52714 4.27602 2.52734 5.45068C2.52728 6.59791 1.79332 7.32649 1.17578 7.69971C1.08369 7.75556 1.01835 7.81842 0.983398 7.86768C0.960955 7.89952 0.957149 7.91643 0.957031 7.91846V9.19189H8.27246V1.83838H0.918945V2.96143Z" fill="#767676"/>
<path d="M9.42188 4.5957C9.92938 4.59578 10.3407 5.00715 10.3408 5.51465V6.43359C10.3408 6.94116 9.92942 7.35344 9.42188 7.35352C8.91445 7.35329 8.50295 6.94107 8.50293 6.43359V5.51465C8.50302 5.00724 8.91449 4.59593 9.42188 4.5957ZM5.74512 0C6.25247 0.000160519 6.66384 0.411603 6.66406 0.918945C6.66404 1.42646 6.2526 1.83871 5.74512 1.83887H4.8252C4.31799 1.83838 3.90627 1.42626 3.90625 0.918945C3.90647 0.411803 4.31811 0.000484716 4.8252 0H5.74512Z" fill="#767676"/>
</svg>
