<svg  viewBox="0 0 25 25" fill="none" xmlns="http://www.w3.org/2000/svg">
<mask id="mask0_3404_27553" style="mask-type:luminance" maskUnits="userSpaceOnUse" x="0" y="0" width="25" height="25">
<path d="M24.3525 0H0V24.3525H24.3525V0Z" fill="white"/>
</mask>
<g mask="url(#mask0_3404_27553)">
<path d="M23.8655 12.4535C23.8655 11.5901 23.788 10.7599 23.6441 9.96289H12.1763V14.6729H18.7293C18.447 16.1949 17.5892 17.4845 16.2996 18.3479V21.4031H20.2348C22.5372 19.2833 23.8655 16.1617 23.8655 12.4535Z" fill="#4285F4"/>
<path d="M12.1762 24.353C15.4638 24.353 18.22 23.2626 20.2346 21.4031L16.2995 18.3479C15.2092 19.0785 13.8144 19.5101 12.1762 19.5101C9.0048 19.5101 6.32055 17.3682 5.36301 14.4902H1.29504V17.645C3.29865 21.6244 7.41641 24.353 12.1762 24.353Z" fill="#34A853"/>
<path d="M5.36303 14.4907C5.1195 13.7601 4.98118 12.9798 4.98118 12.1772C4.98118 11.3747 5.1195 10.5943 5.36303 9.86373V6.70898H1.29506C0.47049 8.35278 0 10.2125 0 12.1772C0 14.142 0.47049 16.0017 1.29506 17.6454L5.36303 14.4907Z" fill="#FBBC04"/>
<path d="M12.1762 4.84286C13.9638 4.84286 15.5689 5.45715 16.8308 6.66369L20.3232 3.1713C18.2145 1.20654 15.4582 0 12.1762 0C7.41641 0 3.29864 2.72857 1.29504 6.70801L5.363 9.86276C6.32054 6.98478 9.0048 4.84286 12.1762 4.84286Z" fill="#E94235"/>
</g>
</svg>
